<?xml version="1.0" encoding="utf-8"?>
<svg viewBox="0 0 500 500" xmlns="http://www.w3.org/2000/svg">
  <title>businessman</title>
  <title>video call</title>
  <path d="M 426.705 202.3 L 426.237 202.3 C 415.653 202.288 407.076 193.711 407.064 183.127 L 407.064 176.58 L 350.012 176.58 L 350.012 175.645 L 407.999 175.645 L 407.999 183.127 C 408.011 193.013 415.888 201.094 425.77 201.359 L 425.77 175.645 L 439.332 175.645 C 443.204 175.64 446.342 172.502 446.346 168.63 L 446.346 97.081 C 446.342 93.208 443.204 90.07 439.332 90.066 L 260.691 90.066 C 256.819 90.07 253.681 93.208 253.677 97.081 L 253.677 148.989 L 252.742 148.989 L 252.742 97.081 C 252.746 92.692 256.303 89.136 260.691 89.131 L 439.332 89.131 C 443.72 89.136 447.277 92.692 447.281 97.081 L 447.281 168.63 C 447.277 173.019 443.72 176.575 439.332 176.58 L 426.705 176.58 Z" fill="#ccc" style=""/>
  <path d="M 409.861 112.751 C 409.738 109.616 407.162 107.137 404.024 107.135 L 295.999 107.135 C 291.499 107.135 288.686 112.006 290.936 115.903 C 291.98 117.712 293.91 118.826 295.999 118.826 L 404.024 118.826 C 407.251 118.822 409.865 116.207 409.87 112.98 C 409.871 112.904 409.868 112.827 409.861 112.751 Z" style="fill: rgb(229, 26, 148);"/>
  <path d="M 409.861 132.392 C 409.738 129.257 407.162 126.778 404.024 126.776 L 295.999 126.776 C 291.499 126.776 288.686 131.647 290.936 135.544 C 291.98 137.353 293.91 138.467 295.999 138.467 L 404.024 138.467 C 407.251 138.463 409.865 135.848 409.87 132.622 C 409.871 132.545 409.868 132.468 409.861 132.392 Z" style="fill: rgb(229, 26, 148);"/>
  <path d="M 409.861 152.033 C 409.738 148.898 407.162 146.419 404.024 146.417 L 295.999 146.417 C 294.264 146.417 292.619 147.188 291.509 148.521 C 291.269 148.813 291.056 149.126 290.873 149.457 L 342.529 149.457 C 346.401 149.461 349.539 152.599 349.544 156.471 L 349.544 158.108 L 404.024 158.108 C 407.251 158.104 409.865 155.489 409.87 152.263 C 409.871 152.186 409.868 152.11 409.861 152.033 Z" style="fill: rgb(229, 26, 148);"/>
  <path d="M 41.263 409.329 C 41.517 409.538 41.772 409.738 42.032 409.934 L 106.288 409.934 C 106.767 409.738 107.244 409.536 107.718 409.329 C 114.502 406.377 120.815 402.446 126.458 397.661 C 130.205 394.487 133.652 391.209 136.151 388.138 C 139.637 383.852 142.848 379.181 144.341 373.86 C 145.831 368.538 145.386 362.437 142.057 358.024 C 141.026 356.667 139.759 355.506 138.316 354.599 C 138.077 354.447 137.835 354.302 137.587 354.165 C 133.445 351.936 128.614 351.355 124.062 352.539 C 117.626 354.202 112.277 358.845 108.46 364.291 C 104.644 369.734 102.166 375.986 99.725 382.168 C 97.247 371.134 89.744 361.25 79.609 356.225 C 69.478 351.2 56.889 351.261 46.972 356.704 C 43.852 358.427 41.034 360.647 38.628 363.276 C 38.388 363.534 38.155 363.797 37.925 364.064 C 33.088 369.664 30.062 376.837 29.813 384.234 C 29.587 393.91 33.806 403.157 41.263 409.329 Z" style="" fill="#f2f2f2"/>
  <path d="M 103.72 409.934 L 104.629 409.934 C 104.641 409.731 104.656 409.532 104.674 409.329 C 104.992 405.367 105.656 401.44 106.661 397.594 C 108.966 388.815 112.902 380.547 118.265 373.224 C 123.612 365.876 130.354 359.654 138.105 354.91 C 138.219 354.845 138.298 354.73 138.316 354.598 C 138.377 354.255 138.042 353.975 137.715 354.095 C 137.691 354.103 137.669 354.114 137.647 354.126 C 137.626 354.138 137.606 354.151 137.587 354.165 C 133.195 356.842 129.119 360.004 125.434 363.591 C 118.844 370.021 113.529 377.639 109.772 386.045 C 106.457 393.407 104.426 401.282 103.768 409.329 C 103.75 409.532 103.735 409.735 103.72 409.934 Z" fill="#fff" style=""/>
  <path d="M 37.925 364.064 C 37.932 364.067 37.939 364.069 37.946 364.07 C 38.609 364.191 39.276 364.318 39.936 364.455 C 45.357 365.568 50.663 367.179 55.787 369.268 C 60.897 371.353 65.813 373.887 70.477 376.84 C 75.147 379.791 79.55 383.144 83.638 386.86 C 87.725 390.571 91.475 394.637 94.842 399.012 C 97.359 402.29 99.647 405.737 101.69 409.329 C 101.805 409.529 101.918 409.731 102.03 409.934 L 103.069 409.934 C 102.96 409.731 102.847 409.529 102.732 409.329 C 100.26 404.928 97.425 400.74 94.257 396.81 C 90.754 392.46 86.871 388.431 82.653 384.77 C 78.463 381.129 73.965 377.858 69.211 374.992 C 64.437 372.115 59.418 369.666 54.212 367.675 C 49.16 365.743 43.944 364.271 38.628 363.276 C 38.479 363.249 38.334 363.222 38.185 363.195 C 37.619 363.092 37.377 363.946 37.925 364.064 Z" fill="#fff" style=""/>
  <path d="M 55.994 395.683 C 62.322 394.813 68.747 394.958 75.029 396.112 C 81.293 397.257 87.34 399.371 92.953 402.379 C 96.107 404.074 99.1 406.051 101.897 408.288 C 102.354 408.653 101.707 409.292 101.254 408.93 C 96.348 405.027 90.847 401.935 84.962 399.772 C 79.124 397.613 72.987 396.368 66.769 396.081 C 63.251 395.92 59.725 396.08 56.235 396.559 C 55.995 396.617 55.75 396.478 55.677 396.242 C 55.611 396 55.753 395.751 55.994 395.683 Z" fill="#fff" style=""/>
  <path d="M 342.062 149.457 L 163.422 149.457 C 159.033 149.463 155.478 153.019 155.472 157.407 L 155.472 228.956 C 155.478 233.344 159.033 236.9 163.422 236.906 L 176.048 236.906 L 176.048 262.627 L 176.516 262.627 C 187.1 262.615 195.678 254.038 195.689 243.453 L 195.689 236.906 L 342.062 236.906 C 346.45 236.9 350.005 233.344 350.012 228.956 L 350.012 157.407 C 350.005 153.019 346.45 149.463 342.062 149.457 Z M 349.076 228.956 C 349.072 232.828 345.934 235.966 342.062 235.971 L 194.754 235.971 L 194.754 243.453 C 194.74 253.338 186.865 261.419 176.983 261.687 L 176.983 235.971 L 163.422 235.971 C 159.549 235.966 156.412 232.828 156.407 228.956 L 156.407 157.407 C 156.412 153.535 159.549 150.397 163.422 150.392 L 342.062 150.392 C 345.934 150.397 349.072 153.535 349.076 157.407 Z" fill="#3f3d56" style=""/>
  <path d="M 306.754 167.461 L 198.729 167.461 C 195.591 167.463 193.015 169.942 192.892 173.077 C 192.885 173.154 192.882 173.23 192.883 173.307 C 192.888 176.533 195.502 179.148 198.729 179.152 L 306.754 179.152 C 311.254 179.152 314.067 174.281 311.817 170.384 C 310.773 168.575 308.843 167.461 306.754 167.461 Z" fill="#1f306d" style=""/>
  <path d="M 306.754 187.102 L 198.729 187.102 C 195.591 187.104 193.015 189.583 192.892 192.718 C 192.885 192.795 192.882 192.871 192.883 192.948 C 192.888 196.174 195.502 198.789 198.729 198.793 L 306.754 198.793 C 311.254 198.793 314.067 193.922 311.817 190.025 C 310.773 188.216 308.843 187.102 306.754 187.102 Z" fill="#1f306d" style=""/>
  <path d="M 306.754 206.743 L 198.729 206.743 C 195.591 206.745 193.015 209.224 192.892 212.36 C 192.885 212.436 192.882 212.512 192.883 212.589 C 192.888 215.815 195.502 218.43 198.729 218.434 L 306.754 218.434 C 311.254 218.434 314.067 213.563 311.817 209.666 C 310.773 207.857 308.843 206.743 306.754 206.743 Z" fill="#1f306d" style=""/>
  <path d="M 134.889 310.195 C 134.679 310.195 134.468 310.182 134.259 310.156 C 131.209 309.782 129.165 306.835 129.882 303.847 C 129.922 303.684 129.971 303.522 130.027 303.363 L 114.425 283.389 C 113.014 281.568 112.965 279.039 114.303 277.165 L 119.768 269.574 L 126.912 275.085 L 124.042 280.015 L 135.407 299.936 C 135.635 299.957 135.862 299.994 136.086 300.047 C 139.937 300.972 141.342 305.72 138.615 308.592 C 137.645 309.614 136.298 310.194 134.889 310.195 Z" fill="#a0616a" style=""/>
  <polygon points="161.891 404.846 167.625 404.845 170.352 382.731 161.89 382.732 161.891 404.846" fill="#a0616a" style=""/>
  <path d="M 161.938 403.476 L 179.947 403.476 C 179.947 403.476 179.947 403.476 179.947 403.476 L 179.947 410.436 C 179.947 410.436 179.947 410.436 179.947 410.436 L 168.896 410.436 C 165.053 410.436 161.938 407.319 161.938 403.476 L 161.938 403.476 C 161.938 403.476 161.938 403.476 161.938 403.476 Z" style="" transform="matrix(-1, 0.000046, -0.000046, -1, 341.90373, 813.904154)" fill="#2f2e41"/>
  <polygon points="114.659 404.846 120.393 404.845 123.12 382.731 114.658 382.732 114.659 404.846" fill="#a0616a" style=""/>
  <path d="M 114.73 403.476 L 132.739 403.476 C 132.739 403.476 132.739 403.476 132.739 403.476 L 132.739 410.435 C 132.739 410.435 132.739 410.435 132.739 410.435 L 121.688 410.435 C 117.844 410.435 114.73 407.318 114.73 403.476 L 114.73 403.476 C 114.73 403.476 114.73 403.476 114.73 403.476 Z" style="" transform="matrix(-1, 0.000046, -0.000046, -1, 247.487722, 813.905319)" fill="#2f2e41"/>
  <path d="M 118.178 270.651 L 131.05 275.542 L 134.192 266.813 C 135.054 264.42 134.066 261.754 131.853 260.5 L 131.853 260.5 C 129.613 259.23 126.782 259.783 125.184 261.802 Z" fill="#1f306d" style=""/>
  <path d="M 160.872 386.994 C 159.815 386.993 158.893 386.276 158.631 385.252 C 152.212 360.695 145.695 348.387 138.706 334.154 C 138.074 332.871 136.29 332.752 135.494 333.942 C 135.343 334.168 135.243 334.425 135.201 334.695 L 126.539 384.755 C 126.36 385.91 125.353 386.754 124.184 386.728 L 111.323 386.415 C 110.693 386.402 110.095 386.131 109.669 385.666 C 109.218 385.219 108.994 384.592 109.059 383.96 C 114.884 345.546 119.471 310.774 128.29 300.166 C 128.535 299.934 128.815 299.744 129.12 299.601 L 128.853 299.56 C 128.776 299.549 128.572 299.517 128.57 299.313 L 128.567 299.115 L 128.769 299.077 C 129.09 299.065 129.41 299.113 129.714 299.219 L 149.843 302.317 C 150.997 302.494 151.84 303.499 151.814 304.666 C 152.908 309.786 154.585 317.513 154.735 317.893 C 165.475 338.312 169.643 354.39 173.974 381.845 C 174.16 383.053 173.383 384.199 172.192 384.473 L 161.396 386.935 C 161.224 386.974 161.049 386.994 160.872 386.994 Z" style="" fill="#2f2e41"/>
  <path d="M 149.576 305.664 C 149.395 305.664 149.215 305.643 149.039 305.601 L 129.221 300.887 C 128.608 300.744 128.08 300.353 127.764 299.807 C 127.439 299.243 127.357 298.57 127.538 297.944 C 129.675 290.535 126.873 281.351 123.526 272.53 C 122.652 267.233 125.355 261.99 130.176 259.628 L 130.23 259.602 L 140.635 260.127 C 144.096 261.035 146.951 263.479 148.382 266.758 C 152.392 276.144 153.541 288.188 151.892 303.578 C 151.767 304.763 150.768 305.663 149.576 305.664 Z" fill="#1f306d" style=""/>
  <path d="M 152.242 284.24 C 151.184 284.242 150.152 283.914 149.289 283.301 L 141.614 277.83 L 147.09 270.66 L 152.034 273.506 L 171.9 262.046 C 171.92 261.817 171.956 261.59 172.007 261.367 C 172.913 257.512 177.653 256.084 180.538 258.796 C 183.423 261.508 182.29 266.327 178.499 267.469 C 177.634 267.73 176.717 267.758 175.838 267.551 C 175.674 267.512 175.512 267.464 175.353 267.409 L 155.397 283.152 C 154.497 283.859 153.386 284.242 152.242 284.24 Z" fill="#a0616a" style=""/>
  <path d="M 139.178 280.063 L 150.565 272.32 L 145.214 264.741 C 143.747 262.663 140.996 261.944 138.7 263.039 L 138.7 263.039 C 136.376 264.146 135.206 266.783 135.944 269.25 Z" fill="#1f306d" style=""/>
  <circle cx="133.702" cy="244.23" r="11.486" fill="#a0616a" style=""/>
  <path d="M 134.755 255.982 C 133.031 255.974 131.701 254.159 131.778 252.437 C 131.855 250.715 133.012 249.199 134.406 248.185 C 135.799 247.17 137.434 246.552 138.988 245.805 C 140.542 245.059 142.082 244.129 143.042 242.696 C 144.218 240.794 144.396 238.439 143.52 236.381 C 142.627 234.353 141.094 232.674 139.156 231.6 C 133.184 228.104 125.529 229.784 121.569 235.458 L 119.601 240.816 C 117.596 243.228 117.278 246.808 118.51 249.692 C 119.743 252.576 122.368 254.745 125.329 255.777 C 128.334 256.742 131.551 256.839 134.608 256.055" fill="#2f2e41" style=""/>
  <path d="M 122.344 238.784 C 118.935 233.529 111.286 233.406 107.71 238.549 C 106.329 240.537 105.827 242.987 104.877 245.214 C 103.156 249.201 100.027 252.415 96.087 254.241 C 99.537 254.847 102.974 253.092 105.732 250.933 C 108.49 248.774 110.916 246.138 114.005 244.486 C 116.435 243.191 119.165 242.564 121.916 242.669" fill="#2f2e41" style=""/>
  <path d="M 219.021 410.87 L 40.849 410.87 C 40.489 410.87 40.264 410.48 40.444 410.168 C 40.528 410.024 40.682 409.934 40.849 409.934 L 219.021 409.934 C 219.381 409.934 219.606 410.324 219.426 410.636 C 219.343 410.781 219.189 410.87 219.021 410.87 Z" style="" fill="#3f3d56"/>
  <circle cx="442.605" cy="232.697" r="27.591" style="fill: rgb(229, 26, 148);"/>
  <path d="M 445.236 252.363 C 444.113 252.332 442.714 252.292 441.637 251.506 C 440.988 251.012 440.59 250.256 440.55 249.442 C 440.51 248.862 440.744 248.297 441.182 247.915 C 441.834 247.428 442.689 247.305 443.452 247.588 L 442.534 240.884 L 443.208 240.792 L 444.286 248.673 L 443.724 248.415 C 443.072 248.116 442.177 247.964 441.621 248.434 C 441.344 248.683 441.199 249.047 441.229 249.418 C 441.262 250.024 441.558 250.586 442.038 250.957 C 442.876 251.569 443.991 251.648 445.255 251.684 Z" style="fill: rgb(204, 204, 204);"/>
  <rect x="435.543" y="241.462" width="3.661" height="0.68" style="fill: rgb(204, 204, 204);"/>
  <rect x="447.098" y="241.462" width="3.661" height="0.68" style="fill: rgb(204, 204, 204);"/>
  <path d="M 429.183 232.076 C 426.235 231.74 423.951 228.915 423.701 226.049 C 423.402 222.639 425.388 219.401 428.112 217.488 C 430.961 215.487 434.51 214.651 437.944 214.467 C 444.644 214.134 451.227 216.304 456.415 220.556 C 458.989 222.693 461.392 225.415 462.303 228.704 C 463.094 231.56 462.45 234.795 460.153 236.795 C 459.005 237.786 457.494 238.251 455.987 238.078 C 454.204 237.893 452.56 236.956 451.137 235.921 C 448.368 233.908 446.095 231.103 442.721 230.051 C 440.248 229.28 437.038 229.959 435.527 232.195 C 435.184 232.707 434.961 233.291 434.877 233.901 C 434.812 234.171 434.967 234.445 435.233 234.528 C 435.504 234.601 435.783 234.443 435.86 234.172 C 436.257 231.355 439.721 230.304 442.151 230.947 C 445.696 231.885 448.075 235.048 450.983 237.057 C 452.488 238.18 454.262 238.887 456.126 239.11 C 457.743 239.237 459.347 238.744 460.613 237.732 C 463.098 235.77 464.048 232.396 463.498 229.358 C 462.862 225.84 460.494 222.825 457.897 220.491 C 452.63 215.809 445.793 213.283 438.747 213.417 C 435.154 213.5 431.404 214.242 428.308 216.141 C 425.305 217.983 422.984 221.066 422.681 224.648 C 422.414 227.802 424.106 231.101 427.01 232.482 C 427.695 232.807 428.429 233.014 429.183 233.095 C 429.834 233.17 429.828 232.149 429.183 232.076 Z" style="fill: rgb(204, 204, 204);"/>
</svg>