<?xml version="1.0" encoding="utf-8"?>
<svg viewBox="0 0 500 500" xmlns="http://www.w3.org/2000/svg">
  <title>businessman</title>
  <title>video call</title>
  <path d="M 486.167 376.118 C 484.301 380.71 482.007 385.117 479.315 389.279 C 478.051 391.264 476.665 393.169 475.165 394.983 L 475.119 395.037 L 11.086 395.037 L 11.169 394.978 C 11.587 394.653 14.038 392.669 17.85 389.275 C 20.585 386.837 24.017 383.671 27.871 379.863 C 59.391 348.861 119.939 275.478 69.512 208.255 C 22.635 145.761 73.108 134.417 106.402 133.097 C 119.195 132.601 131.957 134.687 143.926 139.231 C 159.304 145.076 187.418 154.041 224.044 158.145 C 225.246 158.282 226.46 158.413 227.685 158.538 C 247.076 160.511 266.598 160.864 286.048 159.594 L 286.048 159.594 C 286.62 159.565 287.197 159.523 287.777 159.481 C 307.018 158.127 326.113 155.172 344.863 150.646 C 346.078 150.35 347.276 150.07 348.471 149.812 C 410.947 135.356 468.543 184.622 454.146 240.301 C 448.818 260.889 450.171 282.844 467.925 300.598 C 496.965 329.591 493.428 358.134 486.167 376.118 Z" fill="#1f306d" opacity="0.1" style=""/>
  <ellipse cx="919.83" cy="372.94" rx="5.866" ry="4.48" transform="matrix(0.488012, -0.872837, 0.872837, 0.488012, -390.84519, 838.794902)" fill="#3f3d56" style=""/>
  <ellipse cx="928.21" cy="357.95" rx="5.866" ry="4.48" transform="matrix(0.488012, -0.872837, 0.872837, 0.488012, -378.353735, 847.165751)" fill="#3f3d56" style=""/>
  <ellipse cx="936.59" cy="342.97" rx="5.866" ry="4.48" transform="matrix(0.488012, -0.872837, 0.872837, 0.488012, -365.867316, 855.533915)" fill="#3f3d56" style=""/>
  <ellipse cx="944.97" cy="327.98" rx="5.866" ry="4.48" transform="matrix(0.488012, -0.872837, 0.872837, 0.488012, -353.37583, 863.900491)" fill="#3f3d56" style=""/>
  <ellipse cx="953.34" cy="312.99" rx="5.866" ry="4.48" transform="matrix(0.488012, -0.872837, 0.872837, 0.488012, -340.881507, 872.266336)" fill="#3f3d56" style=""/>
  <ellipse cx="961.72" cy="298" rx="5.866" ry="4.48" transform="matrix(0.488012, -0.872837, 0.872837, 0.488012, -328.385841, 880.637246)" fill="#3f3d56" style=""/>
  <ellipse cx="970.1" cy="283.02" rx="5.866" ry="4.48" transform="matrix(0.488012, -0.872837, 0.872837, 0.488012, -315.899452, 889.005226)" fill="#3f3d56" style=""/>
  <path d="M 443.114 145.732 C 444.029 145.35 444.916 144.906 445.77 144.404 L 436.438 136.968 L 447.499 143.265 C 452.274 139.78 455.404 134.484 456.154 128.621 L 436.918 128.02 L 456.321 125.602 C 456.194 109.078 438.228 98.888 423.981 107.26 C 416.325 111.759 412.229 120.507 413.678 129.268 C 412.254 129.862 410.897 130.607 409.632 131.49 L 419.106 145.878 L 407.552 133.152 C 402.168 138.014 399.603 145.267 400.734 152.433 C 385.484 158.788 382.831 179.268 395.959 189.298 C 409.087 199.328 428.15 191.385 430.272 175.001 C 430.535 172.973 430.507 170.917 430.188 168.897 C 439.332 165.089 444.681 155.516 443.131 145.732 Z" style="fill: rgb(229, 26, 148);"/>
  <path d="M 403.181 138.608 C 400.834 142.811 399.972 147.681 400.734 152.433 C 385.484 158.788 382.831 179.268 395.959 189.298 C 409.087 199.328 428.15 191.385 430.272 175.001 C 430.535 172.973 430.507 170.917 430.188 168.897 C 434.459 167.114 404.359 136.521 403.181 138.608 Z" opacity="0.1" style="fill: rgb(229, 26, 148);"/>
  <path d="M 431.043 368.239 L 436.1 368.239 C 441.865 368.239 446.538 372.913 446.538 378.678 L 446.538 394.172 C 446.538 394.172 446.538 394.172 446.538 394.172 L 420.605 394.172 C 420.605 394.172 420.605 394.172 420.605 394.172 L 420.605 378.678 C 420.605 372.913 425.279 368.239 431.043 368.239 Z" fill="#3f3d56" style=""/>
  <path d="M 431.043 368.239 L 436.1 368.239 C 441.865 368.239 446.538 372.913 446.538 378.678 L 446.538 394.172 C 446.538 394.172 446.538 394.172 446.538 394.172 L 420.605 394.172 C 420.605 394.172 420.605 394.172 420.605 394.172 L 420.605 378.678 C 420.605 372.913 425.279 368.239 431.043 368.239 Z" opacity="0.1" style=""/>
  <circle cx="432.538" cy="371.872" r="2.075" fill="#3f3d56" style=""/>
  <circle cx="432.538" cy="369.279" r="2.075" fill="#3f3d56" style=""/>
  <circle cx="432.538" cy="366.682" r="2.075" fill="#3f3d56" style=""/>
  <circle cx="432.538" cy="364.088" r="2.075" fill="#3f3d56" style=""/>
  <circle cx="432.538" cy="361.496" r="2.075" fill="#3f3d56" style=""/>
  <circle cx="432.538" cy="358.902" r="2.075" fill="#3f3d56" style=""/>
  <circle cx="432.538" cy="356.31" r="2.075" fill="#3f3d56" style=""/>
  <circle cx="435.649" cy="357.346" r="2.075" fill="#3f3d56" style=""/>
  <circle cx="437.724" cy="356.31" r="2.075" fill="#3f3d56" style=""/>
  <circle cx="439.799" cy="355.27" r="2.075" fill="#3f3d56" style=""/>
  <circle cx="432.538" cy="353.717" r="2.075" fill="#3f3d56" style=""/>
  <circle cx="432.538" cy="351.124" r="2.075" fill="#3f3d56" style=""/>
  <circle cx="432.538" cy="348.527" r="2.075" fill="#3f3d56" style=""/>
  <circle cx="432.538" cy="345.934" r="2.075" fill="#3f3d56" style=""/>
  <path d="M 441.139 339.245 C 440.625 339.32 440.107 339.374 439.586 339.408 C 440.067 338.988 440.514 338.53 440.922 338.039 C 440.635 337.166 440.212 336.345 439.67 335.604 C 439.156 335.893 438.587 336.074 438 336.134 C 437.486 336.21 436.968 336.263 436.451 336.297 C 437.147 335.636 437.809 334.94 438.434 334.21 C 433.409 329.655 425.338 332.249 423.906 338.878 C 422.474 345.507 428.755 351.2 435.212 349.125 C 438.86 347.953 441.332 344.559 441.328 340.727 C 441.328 340.219 441.283 339.712 441.194 339.212 Z" fill="#1f306d" style=""/>
  <path d="M 448.071 349.554 C 447.541 349.879 446.944 350.079 446.325 350.139 C 445.812 350.214 445.294 350.268 444.777 350.301 C 445.326 349.808 445.84 349.275 446.313 348.707 C 445.879 348.593 445.433 348.534 444.985 348.531 C 440.986 348.524 438.48 352.848 440.473 356.314 C 442.466 359.781 447.463 359.79 449.469 356.331 C 450.795 354.045 450.193 351.129 448.071 349.554 Z" fill="#1f306d" style=""/>
  <circle cx="429.423" cy="357.346" r="2.075" fill="#3f3d56" style=""/>
  <circle cx="427.348" cy="356.31" r="2.075" fill="#3f3d56" style=""/>
  <circle cx="425.277" cy="355.27" r="2.075" fill="#3f3d56" style=""/>
  <path d="M 417.019 349.554 C 417.548 349.879 418.145 350.079 418.764 350.139 C 419.278 350.214 419.795 350.268 420.312 350.301 C 419.763 349.808 419.249 349.275 418.776 348.707 C 419.21 348.593 419.656 348.534 420.104 348.531 C 424.102 348.524 426.609 352.848 424.617 356.314 C 422.624 359.781 417.626 359.79 415.62 356.331 C 414.295 354.045 414.897 351.129 417.019 349.554 Z" fill="#1f306d" style=""/>
  <path d="M 431.043 369.796 L 436.1 369.796 C 441.865 369.796 446.538 374.47 446.538 380.235 L 446.538 393.959 C 446.538 394.937 445.746 395.73 444.768 395.73 L 422.375 395.73 C 421.397 395.73 420.605 394.937 420.605 393.959 L 420.605 380.235 C 420.605 374.47 425.279 369.796 431.043 369.796 Z" fill="#3f3d56" style=""/>
  <g opacity="0.1" transform="matrix(0.41754, 0, 0, 0.41754, 8.748132, 104.450325)" style="">
    <path d="M1058.15,664.88a16.19,16.19,0,0,1-1.61,1.52c.57,0,1.14-.09,1.7-.15C1058.22,665.79,1058.2,665.33,1058.15,664.88Z" transform="translate(-22.2 -101.19)"/>
    <path d="M1049.09,658.94c1.24-.08,2.48-.21,3.71-.39a11.64,11.64,0,0,0,3.23-.88,22.6,22.6,0,0,0-1.74-2.87,7.52,7.52,0,0,1-2,.85A29.59,29.59,0,0,1,1049.09,658.94Z" transform="translate(-22.2 -101.19)"/>
    <path d="M1018.53,669.61a21.08,21.08,0,0,1,32.5-17.76l.32-.34a21.1,21.1,0,1,0-27.82,31.73A21,21,0,0,1,1018.53,669.61Z" transform="translate(-22.2 -101.19)"/>
  </g>
  <g opacity="0.1" transform="matrix(0.41754, 0, 0, 0.41754, 8.748132, 104.450325)" style="">
    <path d="M1066.48,692.49c1.24-.09,2.48-.22,3.71-.4a9.77,9.77,0,0,0,4.18-1.39,12.39,12.39,0,0,1,5,8.8,11.55,11.55,0,0,0,.07-1.32,12.39,12.39,0,0,0-5-10,9.78,9.78,0,0,1-4.18,1.4l-1,.12A24.61,24.61,0,0,1,1066.48,692.49Z" transform="translate(-22.2 -101.19)"/>
    <path d="M1067,688.24c.42,0,.83,0,1.24.09.65-.69,1.29-1.43,1.94-2.15a12.83,12.83,0,0,0-3.18-.42,12.42,12.42,0,0,0-12.42,12.42c0,.42,0,.84.06,1.24A12.43,12.43,0,0,1,1067,688.24Z" transform="translate(-22.2 -101.19)"/>
  </g>
  <g opacity="0.1" transform="matrix(0.41754, 0, 0, 0.41754, 8.748132, 104.450325)" style="">
    <path d="M1007.85,692.49c-1.24-.09-2.48-.22-3.71-.4a9.77,9.77,0,0,1-4.18-1.39,12.39,12.39,0,0,0-5,8.8,11.55,11.55,0,0,1-.07-1.32,12.39,12.39,0,0,1,5-10,9.78,9.78,0,0,0,4.18,1.4l1,.12A25.5,25.5,0,0,0,1007.85,692.49Z" transform="translate(-22.2 -101.19)"/>
    <path d="M1007.35,688.24c-.42,0-.83,0-1.24.09-.65-.69-1.29-1.43-1.94-2.15a12.83,12.83,0,0,1,3.18-.42,12.42,12.42,0,0,1,12.42,12.42c0,.42,0,.84-.06,1.24A12.43,12.43,0,0,0,1007.35,688.24Z" transform="translate(-22.2 -101.19)"/>
  </g>
  <path d="M 32.547 329.504 L 72.439 329.504 C 78.204 329.504 82.877 334.178 82.877 339.942 L 82.877 390.252 C 82.877 390.252 82.877 390.252 82.877 390.252 L 22.109 390.252 C 22.109 390.252 22.109 390.252 22.109 390.252 L 22.109 339.942 C 22.109 334.178 26.782 329.504 32.547 329.504 Z" fill="#3f3d56" style=""/>
  <path d="M 32.547 329.504 L 72.439 329.504 C 78.204 329.504 82.877 334.178 82.877 339.942 L 82.877 390.252 C 82.877 390.252 82.877 390.252 82.877 390.252 L 22.109 390.252 C 22.109 390.252 22.109 390.252 22.109 390.252 L 22.109 339.942 C 22.109 334.178 26.782 329.504 32.547 329.504 Z" opacity="0.1" style=""/>
  <circle cx="50.072" cy="337.993" r="4.86" fill="#3f3d56" style=""/>
  <circle cx="50.072" cy="331.917" r="4.86" fill="#3f3d56" style=""/>
  <circle cx="50.072" cy="325.838" r="4.86" fill="#3f3d56" style=""/>
  <circle cx="50.072" cy="319.762" r="4.86" fill="#3f3d56" style=""/>
  <circle cx="50.072" cy="313.683" r="4.86" fill="#3f3d56" style=""/>
  <circle cx="50.072" cy="307.608" r="4.86" fill="#3f3d56" style=""/>
  <circle cx="50.072" cy="301.533" r="4.86" fill="#3f3d56" style=""/>
  <circle cx="57.362" cy="303.963" r="4.86" fill="#3f3d56" style=""/>
  <circle cx="62.222" cy="301.533" r="4.86" fill="#3f3d56" style=""/>
  <circle cx="67.087" cy="299.098" r="4.86" fill="#3f3d56" style=""/>
  <circle cx="50.072" cy="295.453" r="4.86" fill="#3f3d56" style=""/>
  <circle cx="50.072" cy="289.378" r="4.86" fill="#3f3d56" style=""/>
  <circle cx="50.072" cy="283.299" r="4.86" fill="#3f3d56" style=""/>
  <circle cx="50.072" cy="277.224" r="4.86" fill="#3f3d56" style=""/>
  <path d="M 70.226 261.545 C 69.021 261.72 67.81 261.849 66.594 261.929 C 67.719 260.943 68.765 259.87 69.721 258.718 C 69.058 256.678 68.08 254.754 66.823 253.015 C 65.627 253.698 64.302 254.125 62.932 254.267 C 61.729 254.442 60.514 254.572 59.299 254.655 C 60.898 253.361 62.38 251.403 63.947 249.812 C 52.147 239.096 33.172 245.171 29.791 260.749 C 26.41 276.325 41.16 289.721 56.34 284.86 C 66.209 281.7 72.222 271.732 70.414 261.528 Z" style="fill: rgb(229, 26, 148);"/>
  <path d="M 86.469 285.704 C 85.325 286.51 83.805 286.857 82.381 287.065 C 81.174 287.245 79.964 287.37 78.748 287.453 C 80.001 286.447 81.153 285.044 82.348 283.72 C 73.298 281.319 65.042 289.615 67.486 298.652 C 69.931 307.691 81.244 310.693 87.849 304.057 C 93.082 298.799 92.429 290.12 86.469 285.704 Z" style="fill: rgb(229, 26, 148);"/>
  <circle cx="42.777" cy="303.963" r="4.86" fill="#3f3d56" style=""/>
  <circle cx="37.917" cy="301.533" r="4.86" fill="#3f3d56" style=""/>
  <circle cx="33.057" cy="299.098" r="4.86" fill="#3f3d56" style=""/>
  <path d="M 13.675 285.704 C 14.819 286.51 16.339 286.857 17.767 287.065 C 18.969 287.245 20.18 287.37 21.395 287.453 C 20.142 286.447 18.99 285.044 17.796 283.72 C 26.845 281.319 35.101 289.615 32.656 298.652 C 30.211 307.691 18.899 310.693 12.295 304.057 C 7.061 298.799 7.714 290.12 13.675 285.704 Z" style="fill: rgb(229, 26, 148);"/>
  <path d="M 32.547 333.132 L 72.439 333.132 C 78.204 333.132 82.877 337.806 82.877 343.571 L 82.877 392.135 C 82.877 393.113 82.085 393.906 81.108 393.906 L 23.888 393.906 C 22.907 393.91 22.109 393.116 22.109 392.135 L 22.109 343.571 C 22.109 337.806 26.782 333.132 32.547 333.132 Z" fill="#3f3d56" style=""/>
  <g opacity="0.1" transform="matrix(0.41754, 0, 0, 0.41754, 8.748132, 104.450325)" style="">
    <path d="M170.32,480.61a37.62,37.62,0,0,1-3.76,3.56c1.33-.09,2.67-.21,4-.34C170.51,482.75,170.44,481.67,170.32,480.61Z" transform="translate(-22.2 -101.19)"/>
    <path d="M149.1,466.71c2.91-.2,5.81-.5,8.69-.93a27.71,27.71,0,0,0,7.58-2,50.55,50.55,0,0,0-4.08-6.74,17.18,17.18,0,0,1-4.66,2A69.21,69.21,0,0,1,149.1,466.71Z" transform="translate(-22.2 -101.19)"/>
    <path d="M77.5,491.7a49.39,49.39,0,0,1,76.15-41.61c.25-.26.5-.55.75-.8a49.44,49.44,0,1,0-65.17,74.35A49.21,49.21,0,0,1,77.5,491.7Z" transform="translate(-22.2 -101.19)"/>
  </g>
  <g opacity="0.1" transform="matrix(0.41754, 0, 0, 0.41754, 8.748132, 104.450325)" style="">
    <path d="M189.85,545.3q4.36-.28,8.7-.93c3.41-.49,7-1.32,9.79-3.26A29.06,29.06,0,0,1,220,561.72c.1-1,.16-2,.16-3.07a29,29,0,0,0-11.79-23.36c-2.74,1.93-6.38,2.76-9.79,3.26-.77.11-1.53.2-2.29.29A57.62,57.62,0,0,1,189.85,545.3Z" transform="translate(-22.2 -101.19)"/>
    <path d="M191,535.36a28.06,28.06,0,0,1,2.92.2c1.52-1.62,3-3.34,4.53-5a29,29,0,0,0-36.55,28.11c0,1,.05,2,.14,2.91A29.11,29.11,0,0,1,191,535.36Z" transform="translate(-22.2 -101.19)"/>
  </g>
  <g opacity="0.1" transform="matrix(0.41754, 0, 0, 0.41754, 8.748132, 104.450325)" style="">
    <path d="M52.48,545.3q-4.36-.28-8.69-.93c-3.42-.49-7.06-1.32-9.8-3.26a29.06,29.06,0,0,0-11.63,20.61c-.1-1-.16-2-.16-3.07A29,29,0,0,1,34,535.29c2.74,1.93,6.38,2.76,9.8,3.26.76.11,1.52.2,2.28.29A58.48,58.48,0,0,0,52.48,545.3Z" transform="translate(-22.2 -101.19)"/>
    <path d="M51.31,535.36a28.06,28.06,0,0,0-2.92.2c-1.52-1.62-3-3.34-4.53-5a29,29,0,0,1,36.55,28.11c0,1,0,2-.14,2.91A29.11,29.11,0,0,0,51.31,535.36Z" transform="translate(-22.2 -101.19)"/>
  </g>
  <polygon points="292.667 395.116 211.246 394.072 211.484 391.984 215.422 357.538 286.926 357.538 292.186 391.984 292.587 394.594 292.667 395.116" fill="#d0d2d5" style=""/>
  <polygon points="292.587 394.594 251.956 394.594 211.246 394.072 211.484 391.984 292.186 391.984 292.587 394.594" opacity="0.1" style=""/>
  <rect x="197.676" y="392.506" width="108.038" height="2.61" fill="#d0d2d5" style=""/>
  <path d="M 408.793 150.638 C 408.811 146.885 405.786 143.827 402.033 143.807 L 100.314 143.807 C 96.56 143.825 93.532 146.884 93.55 150.638 L 93.55 333.521 L 408.793 333.521 Z" fill="#444053" style=""/>
  <path d="M 93.55 331.7 L 93.55 353.124 C 93.538 356.867 96.571 359.907 100.314 359.905 L 402.033 359.905 C 405.766 359.905 408.793 356.878 408.793 353.145 L 408.793 331.7 Z" fill="#d0d2d5" style=""/>
  <rect x="106.598" y="155.29" width="290.712" height="164.406" fill="#1f306d" opacity="0.1" style=""/>
  <path d="M 252.737 351.759 C 254.9 351.76 256.944 350.769 258.282 349.07 L 258.282 349.07 C 258.482 348.813 258.664 348.544 258.829 348.264 L 254.963 347.63 L 259.138 347.659 C 259.952 345.896 260 343.875 259.272 342.076 L 253.664 344.998 L 258.838 341.2 C 256.198 336.463 249.421 336.36 246.638 341.014 C 245.125 343.546 245.35 346.752 247.201 349.049 L 247.201 349.049 C 248.532 350.755 250.573 351.754 252.737 351.759 Z" style="fill: rgb(229, 26, 148);"/>
  <polygon points="259.786 359.884 292.266 392.506 287.285 359.884 259.786 359.884" opacity="0.1" style=""/>
  <rect x="114.69" y="177.678" width="224.427" height="119.17" fill="#fff" style=""/>
  <rect x="127.208" y="208.743" width="62.597" height="3.245" fill="#1f306d" opacity="0.1" style=""/>
  <rect x="132.774" y="191.586" width="6.029" height="17.157" fill="#1f306d" opacity="0.1" style=""/>
  <rect x="141.584" y="191.586" width="6.029" height="17.157" fill="#1f306d" opacity="0.1" style=""/>
  <rect x="150.394" y="191.586" width="6.029" height="17.157" fill="#1f306d" opacity="0.1" style=""/>
  <rect x="159.204" y="191.586" width="6.029" height="17.157" fill="#1f306d" opacity="0.1" style=""/>
  <rect x="168.014" y="191.586" width="6.029" height="17.157" fill="#1f306d" opacity="0.1" style=""/>
  <rect x="176.824" y="191.586" width="6.029" height="17.157" fill="#1f306d" opacity="0.1" style=""/>
  <rect x="132.774" y="194.834" width="6.029" height="1.854" fill="#1f306d" opacity="0.1" style=""/>
  <rect x="141.584" y="194.834" width="6.029" height="1.854" fill="#1f306d" opacity="0.1" style=""/>
  <rect x="150.394" y="194.834" width="6.029" height="1.854" fill="#1f306d" opacity="0.1" style=""/>
  <rect x="159.204" y="194.834" width="6.029" height="1.854" fill="#1f306d" opacity="0.1" style=""/>
  <rect x="168.014" y="194.834" width="6.029" height="1.854" fill="#1f306d" opacity="0.1" style=""/>
  <rect x="176.824" y="194.834" width="6.029" height="1.854" fill="#1f306d" opacity="0.1" style=""/>
  <rect x="132.774" y="203.181" width="6.029" height="1.854" fill="#1f306d" opacity="0.1" style=""/>
  <rect x="141.584" y="203.181" width="6.029" height="1.854" fill="#1f306d" opacity="0.1" style=""/>
  <rect x="150.394" y="203.181" width="6.029" height="1.854" fill="#1f306d" opacity="0.1" style=""/>
  <rect x="159.204" y="203.181" width="6.029" height="1.854" fill="#1f306d" opacity="0.1" style=""/>
  <rect x="168.014" y="203.181" width="6.029" height="1.854" fill="#1f306d" opacity="0.1" style=""/>
  <rect x="176.824" y="203.181" width="6.029" height="1.854" fill="#1f306d" opacity="0.1" style=""/>
  <rect x="264.462" y="217.09" width="62.597" height="3.245" fill="#1f306d" opacity="0.1" style=""/>
  <rect x="270.028" y="199.933" width="6.029" height="17.157" fill="#1f306d" opacity="0.1" style=""/>
  <rect x="278.838" y="199.933" width="6.029" height="17.157" fill="#1f306d" opacity="0.1" style=""/>
  <rect x="287.647" y="199.933" width="6.029" height="17.157" fill="#1f306d" opacity="0.1" style=""/>
  <rect x="296.458" y="199.933" width="6.029" height="17.157" fill="#1f306d" opacity="0.1" style=""/>
  <rect x="305.268" y="199.933" width="6.029" height="17.157" fill="#1f306d" opacity="0.1" style=""/>
  <rect x="314.078" y="199.933" width="6.029" height="17.157" fill="#1f306d" opacity="0.1" style=""/>
  <rect x="270.028" y="203.181" width="6.029" height="1.854" fill="#1f306d" opacity="0.1" style=""/>
  <rect x="278.838" y="203.181" width="6.029" height="1.854" fill="#1f306d" opacity="0.1" style=""/>
  <rect x="287.647" y="203.181" width="6.029" height="1.854" fill="#1f306d" opacity="0.1" style=""/>
  <rect x="296.458" y="203.181" width="6.029" height="1.854" fill="#1f306d" opacity="0.1" style=""/>
  <rect x="305.268" y="203.181" width="6.029" height="1.854" fill="#1f306d" opacity="0.1" style=""/>
  <rect x="314.078" y="203.181" width="6.029" height="1.854" fill="#1f306d" opacity="0.1" style=""/>
  <rect x="270.028" y="211.528" width="6.029" height="1.854" fill="#1f306d" opacity="0.1" style=""/>
  <rect x="278.838" y="211.528" width="6.029" height="1.854" fill="#1f306d" opacity="0.1" style=""/>
  <rect x="287.647" y="211.528" width="6.029" height="1.854" fill="#1f306d" opacity="0.1" style=""/>
  <rect x="296.458" y="211.528" width="6.029" height="1.854" fill="#1f306d" opacity="0.1" style=""/>
  <rect x="305.268" y="211.528" width="6.029" height="1.854" fill="#1f306d" opacity="0.1" style=""/>
  <rect x="314.078" y="211.528" width="6.029" height="1.854" fill="#1f306d" opacity="0.1" style=""/>
  <rect x="264.462" y="240.739" width="62.597" height="3.245" fill="#1f306d" opacity="0.1" style=""/>
  <rect x="270.028" y="223.582" width="6.029" height="17.157" fill="#1f306d" opacity="0.1" style=""/>
  <rect x="278.838" y="223.582" width="6.029" height="17.157" fill="#1f306d" opacity="0.1" style=""/>
  <rect x="287.647" y="223.582" width="6.029" height="17.157" fill="#1f306d" opacity="0.1" style=""/>
  <rect x="296.458" y="223.582" width="6.029" height="17.157" fill="#1f306d" opacity="0.1" style=""/>
  <rect x="305.268" y="223.582" width="6.029" height="17.157" fill="#1f306d" opacity="0.1" style=""/>
  <rect x="314.078" y="223.582" width="6.029" height="17.157" fill="#1f306d" opacity="0.1" style=""/>
  <rect x="270.028" y="226.826" width="6.029" height="1.854" fill="#1f306d" opacity="0.1" style=""/>
  <rect x="278.838" y="226.826" width="6.029" height="1.854" fill="#1f306d" opacity="0.1" style=""/>
  <rect x="287.647" y="226.826" width="6.029" height="1.854" fill="#1f306d" opacity="0.1" style=""/>
  <rect x="296.458" y="226.826" width="6.029" height="1.854" fill="#1f306d" opacity="0.1" style=""/>
  <rect x="305.268" y="226.826" width="6.029" height="1.854" fill="#1f306d" opacity="0.1" style=""/>
  <rect x="314.078" y="226.826" width="6.029" height="1.854" fill="#1f306d" opacity="0.1" style=""/>
  <rect x="270.028" y="235.173" width="6.029" height="1.854" fill="#1f306d" opacity="0.1" style=""/>
  <rect x="278.838" y="235.173" width="6.029" height="1.854" fill="#1f306d" opacity="0.1" style=""/>
  <rect x="287.647" y="235.173" width="6.029" height="1.854" fill="#1f306d" opacity="0.1" style=""/>
  <rect x="296.458" y="235.173" width="6.029" height="1.854" fill="#1f306d" opacity="0.1" style=""/>
  <rect x="305.268" y="235.173" width="6.029" height="1.854" fill="#1f306d" opacity="0.1" style=""/>
  <rect x="314.078" y="235.173" width="6.029" height="1.854" fill="#1f306d" opacity="0.1" style=""/>
  <path d="M 165.6 245.437 C 165.132 244.84 164.706 244.213 164.323 243.558 L 173.338 242.079 L 163.571 242.158 C 161.682 238.046 161.569 233.338 163.259 229.14 L 176.336 235.925 L 164.277 227.06 C 170.587 216.099 186.397 216.079 192.735 227.025 C 196.109 232.851 195.586 240.146 191.417 245.432 C 192.151 246.358 192.782 247.36 193.3 248.421 L 181.609 254.497 L 194.081 250.321 C 195.863 255.579 194.867 261.382 191.434 265.745 C 199.255 275.685 193.382 290.364 180.864 292.168 C 168.345 293.971 158.569 281.546 163.267 269.803 C 163.85 268.346 164.639 266.979 165.609 265.745 C 160.922 259.786 160.922 251.392 165.609 245.432 Z" fill="#1f306d" opacity="0.1" style=""/>
  <path d="M 194.942 255.595 C 194.946 259.279 193.708 262.858 191.426 265.75 C 199.246 275.69 193.375 290.369 180.855 292.172 C 168.337 293.975 158.561 281.55 163.259 269.807 C 163.841 268.349 164.63 266.983 165.6 265.75 C 163.4 262.957 194.942 253.75 194.942 255.595 Z" fill="#1f306d" opacity="0.1" style=""/>
  <path d="M 181.15 296.71 C 181.179 296.756 181.2 296.802 181.229 296.848 L 175.651 296.848 C 175.68 296.802 175.701 296.756 175.73 296.71 C 175.251 295.875 175.004 294.926 175.012 293.963 C 175.011 293.304 175.126 292.649 175.35 292.03 C 175.35 292.03 175.35 292.03 175.35 292.03 C 175.659 292.08 176.043 292.134 176.486 292.18 C 177.78 292.309 179.084 292.309 180.377 292.18 C 180.745 292.143 181.133 292.088 181.526 292.03 C 181.527 292.04 181.527 292.05 181.526 292.059 C 181.746 292.669 181.857 293.314 181.856 293.963 C 181.868 294.925 181.624 295.873 181.15 296.71 Z" fill="#3f3d56" opacity="0.2" style=""/>
  <path d="M 161.104 296.856 L 130.081 296.856 C 130.01 296.677 129.947 296.489 129.892 296.305 C 128.799 292.787 128.927 289.003 130.256 285.567 C 124.016 281.256 121.538 273.233 124.261 266.154 C 123.636 265.722 123.042 265.247 122.481 264.735 L 130.657 260.66 L 121.367 263.608 C 118.345 260.236 116.846 255.769 117.225 251.257 L 131.722 253.875 L 117.584 248.964 C 120.383 236.63 135.484 231.952 144.767 240.543 C 149.708 245.116 151.359 252.242 148.932 258.522 C 149.903 259.195 150.801 259.969 151.609 260.831 L 142.223 270.092 L 152.907 262.409 C 156.161 266.91 156.921 272.75 154.929 277.933 C 161.007 282.135 163.534 289.877 161.104 296.856 Z" fill="#1f306d" opacity="0.1" style=""/>
  <path d="M 161.104 296.856 L 130.081 296.856 C 130.01 296.677 129.947 296.489 129.892 296.305 C 128.799 292.787 128.927 289.003 130.256 285.567 C 127.333 283.541 154.749 265.436 155.309 267.195 C 156.398 270.714 156.27 274.499 154.945 277.938 C 161.016 282.144 163.535 289.883 161.104 296.856 Z" fill="#1f306d" opacity="0.1" style=""/>
  <path d="M 301.585 274.597 C 299.701 277.763 296.802 280.2 293.359 281.512 C 293.507 282.685 293.53 283.87 293.431 285.048 L 280.27 284.259 L 293.122 287.07 C 292.272 290.996 290.016 294.477 286.779 296.856 L 268.867 296.856 L 268.867 297.32 L 250.633 297.32 C 250.67 297.161 250.708 297.007 250.75 296.856 C 252.109 291.747 255.835 287.6 260.771 285.704 C 259.812 278.18 264.124 270.977 271.209 268.267 C 271.111 267.516 271.065 266.758 271.072 266 L 279.568 269.341 L 271.168 264.405 C 271.652 259.91 273.964 255.813 277.56 253.073 L 285.301 265.599 L 279.501 251.821 C 290.552 245.674 304.112 253.795 303.91 266.439 C 303.863 269.319 303.061 272.138 301.581 274.61 Z" fill="#1f306d" opacity="0.1" style=""/>
  <path d="M 291.159 292.034 C 290.041 293.922 288.551 295.562 286.779 296.856 L 268.867 296.856 L 268.867 297.32 L 250.633 297.32 C 250.67 297.161 250.708 297.007 250.75 296.856 C 252.109 291.747 255.835 287.6 260.771 285.704 C 260.616 284.505 264.157 284.668 268.871 285.462 C 278.086 287.007 291.785 290.986 291.159 292.034 Z" fill="#1f306d" opacity="0.1" style=""/>
  <path d="M 213.53 248.196 C 213.53 248.196 215.764 260.376 210.753 264.347 C 205.743 268.318 214.987 292.146 230.344 289.37 C 245.702 286.593 251.923 266.597 251.923 266.597 C 251.923 266.597 236.566 263.424 242.257 247.274 Z" fill="#efb7b9" style=""/>
  <path d="M 213.53 248.196 C 213.53 248.196 215.764 260.376 210.753 264.347 C 205.743 268.318 214.987 292.146 230.344 289.37 C 245.702 286.593 251.923 266.597 251.923 266.597 C 251.923 266.597 236.566 263.424 242.257 247.274 Z" opacity="0.1" style=""/>
  <circle cx="227.1" cy="231.716" r="25.415" fill="#efb7b9" style=""/>
  <path d="M 268.867 280.034 L 268.867 297.312 L 184.941 297.312 L 184.941 280.823 C 184.943 276.547 187.501 272.687 191.438 271.019 L 193.848 269.996 C 199.935 267.403 207.329 264.184 209.748 262.844 C 210.012 262.711 210.261 262.551 210.49 262.363 C 211.814 261.04 211.551 262.76 211.551 262.76 C 211.551 262.76 211.514 263.086 211.488 263.653 C 211.347 267.541 211.906 282.831 229.819 281.558 C 247.296 280.305 248.065 268.514 247.906 265.044 C 247.896 264.723 247.868 264.402 247.823 264.084 C 247.823 263.992 249.326 264.501 251.364 265.236 C 255.026 266.585 260.408 268.756 261.856 269.779 C 262.307 270.092 262.854 270.426 263.447 270.756 C 266.808 272.632 268.887 276.184 268.875 280.034 Z" fill="#1f306d" style=""/>
  <path d="M 251.36 265.236 C 249.881 272.092 245.238 284.935 228.491 285.278 C 210.658 285.629 209.631 267.892 209.739 262.861 C 210.006 262.728 210.257 262.565 210.486 262.376 C 211.81 261.052 211.547 262.773 211.547 262.773 C 211.547 262.773 209.296 283.028 229.814 281.562 C 250.333 280.096 247.818 264.088 247.818 264.088 C 247.818 263.992 249.321 264.484 251.36 265.236 Z" opacity="0.1" style=""/>
  <path d="M 197.017 232.973 C 198.687 232.43 200.678 233.349 201.609 234.643 C 202.54 235.937 202.67 237.503 202.782 239.002 C 203.889 239.236 204.512 237.983 204.612 237.044 C 205.029 233.198 205.05 229.281 206.34 225.574 C 207.63 221.867 210.449 218.275 214.783 216.847 C 216.257 216.336 217.832 216.186 219.376 216.409 C 220.29 216.564 221.154 216.881 222.069 217.031 C 225.229 217.553 228.675 216.054 231.643 217.098 C 233.501 217.753 234.699 219.269 235.551 220.789 C 235.931 221.605 236.445 222.352 237.071 222.998 C 238.324 224.126 240.311 224.422 242.115 224.777 C 243.919 225.131 245.898 225.741 246.67 227.136 C 247.368 228.388 246.854 229.85 246.62 231.219 C 246.263 233.377 246.626 235.592 247.651 237.524 C 247.986 238.159 248.662 238.877 249.46 238.672 C 249.823 238.55 250.13 238.301 250.324 237.971 C 252.411 235.048 252.345 231.257 254.946 228.647 C 255.818 227.775 256.942 227.089 257.79 226.201 C 259.092 224.884 259.646 223.001 259.264 221.19 C 258.795 219.182 257.175 217.507 255.894 215.762 C 254.209 213.525 252.981 210.978 252.282 208.267 C 252.159 207.953 252.159 207.604 252.282 207.29 C 252.528 206.97 252.843 206.712 253.205 206.534 C 254.671 205.562 255.185 203.651 254.403 202.075 C 253.677 200.559 252.044 199.436 250.253 198.759 C 248.462 198.084 246.495 197.795 244.549 197.507 C 243.271 197.694 241.773 196.964 241.376 195.941 C 241.201 195.486 241.201 194.993 241.021 194.538 C 240.674 193.666 239.677 193.047 238.604 192.835 C 237.512 192.656 236.394 192.735 235.338 193.064 C 234.136 193.403 232.741 193.899 231.693 193.324 C 231.142 193.01 230.833 192.442 230.24 192.187 C 229.037 191.674 227.768 192.709 226.9 193.566 C 226.057 194.457 225.026 195.149 223.881 195.59 C 222.674 196.008 221.188 196.008 220.148 195.344 C 219.313 194.814 218.895 193.962 218.232 193.286 C 217.142 192.171 215.417 191.565 213.697 191.428 C 211.972 191.337 210.243 191.526 208.578 191.987 C 205.4 192.757 202.363 194.025 199.58 195.745 C 198.19 196.617 196.858 197.636 196.131 198.952 C 195.615 199.977 195.349 201.111 195.355 202.258 C 195.225 205.854 196.419 209.645 199.53 212.163 C 197.634 212.956 196.991 214.898 196.549 216.622 C 195.839 219.369 195.125 222.167 195.392 224.973 C 195.526 226.421 195.923 227.871 195.71 229.311 C 195.609 230.008 195.367 230.693 195.426 231.399 C 195.584 232.199 196.214 232.823 197.017 232.973 Z" fill="#454b69" style=""/>
  <g opacity="0.1" transform="matrix(0.41754, 0, 0, 0.41754, 8.748132, 104.450325)" style="">
    <path d="M621.3,378.18a14.34,14.34,0,0,1-2.63,3.87c-2,2.13-4.72,3.77-6.81,5.87-6.23,6.24-6.1,15.35-11.07,22.33a3.8,3.8,0,0,1-2.07,1.67c-1.91.49-3.53-1.23-4.33-2.75a24.3,24.3,0,0,1-2.17-5.85q-.16.76-.3,1.53a23.88,23.88,0,0,0,2.47,15.1c.8,1.52,2.42,3.24,4.33,2.75a3.82,3.82,0,0,0,2.07-1.68c5-7,4.84-16.08,11.07-22.33,2.09-2.09,4.78-3.73,6.81-5.86a13.18,13.18,0,0,0,3.53-12A14.42,14.42,0,0,0,621.3,378.18Z" transform="translate(-22.2 -101.19)"/>
    <path d="M607.71,335a6.14,6.14,0,0,0-2.21,1.8,3.2,3.2,0,0,0,0,2.34,48.89,48.89,0,0,0,2.21,6.65l0,0A8.36,8.36,0,0,0,610.54,335a10.94,10.94,0,0,0-1-1.7A8.34,8.34,0,0,1,607.71,335Z" transform="translate(-22.2 -101.19)"/>
    <path d="M479.11,348.48a27.15,27.15,0,0,1-9.55-16.9,24,24,0,0,0-.44,4,30.43,30.43,0,0,0,4.8,18A10.23,10.23,0,0,1,479.11,348.48Z" transform="translate(-22.2 -101.19)"/>
    <path d="M591.92,394.07c.56-3.28,1.79-6.77.12-9.78-1.85-3.34-6.58-4.81-10.91-5.65s-9.06-1.56-12.08-4.26a19.29,19.29,0,0,1-3.64-5.29c-2-3.64-4.91-7.27-9.36-8.84-7.11-2.5-15.36,1.09-22.93-.16-2.19-.36-4.26-1.12-6.45-1.49a23.36,23.36,0,0,0-11,1c-10.38,3.42-17.13,12-20.22,20.9s-3.16,18.26-4.14,27.47c-.24,2.25-1.73,5.25-4.38,4.69-.27-3.59-.6-7.34-2.81-10.44s-6.93-5.31-11-4a5.3,5.3,0,0,1-3.08-2,16.81,16.81,0,0,1-.06,4c-.24,1.67-.82,3.31-.68,5A4.78,4.78,0,0,0,473.1,409c4-1.3,8.77.9,11,4s2.54,6.85,2.81,10.44c2.65.56,4.14-2.44,4.38-4.69,1-9.21,1.05-18.59,4.14-27.47s9.84-17.48,20.22-20.9a23.36,23.36,0,0,1,11-1.05c2.19.37,4.26,1.13,6.45,1.49,7.57,1.25,15.82-2.34,22.93.16,4.45,1.57,7.32,5.2,9.36,8.84a19.29,19.29,0,0,0,3.64,5.29c3,2.7,7.76,3.41,12.08,4.26s8.71,2.21,10.69,5.31C591.85,394.51,591.88,394.29,591.92,394.07Z" transform="translate(-22.2 -101.19)"/>
    <path d="M470,389.53a28.13,28.13,0,0,0-.48-8.12,36.2,36.2,0,0,0-.28,8.51c.06.73.16,1.45.26,2.18C469.62,391.24,469.84,390.39,470,389.53Z" transform="translate(-22.2 -101.19)"/>
  </g>
  <rect x="350.6" y="270.919" width="37.579" height="26.075" fill="#fff" style=""/>
  <path d="M 384.83 290.593 C 384.294 291.495 383.469 292.188 382.488 292.56 C 382.53 292.894 382.537 293.231 382.508 293.566 L 378.751 293.34 L 382.409 294.142 C 382.164 295.257 381.524 296.246 380.605 296.923 L 375.519 296.923 L 375.519 297.057 L 370.333 297.057 C 370.333 297.011 370.333 296.969 370.367 296.923 C 370.478 296.499 370.65 296.092 370.876 295.716 C 371.412 294.817 372.236 294.123 373.215 293.75 C 372.939 291.609 374.166 289.559 376.183 288.79 C 376.154 288.577 376.142 288.361 376.145 288.147 L 378.563 289.099 L 376.171 287.695 C 376.307 286.414 376.967 285.246 377.995 284.468 L 380.196 288.034 L 378.547 284.109 C 381.708 282.388 385.547 284.735 385.457 288.334 C 385.437 289.129 385.214 289.907 384.81 290.593 Z" fill="#1f306d" opacity="0.1" style=""/>
  <path d="M 381.861 295.566 C 381.541 296.103 381.115 296.569 380.609 296.936 L 375.519 296.936 L 375.519 297.069 L 370.333 297.069 C 370.333 297.023 370.333 296.982 370.367 296.936 C 370.478 296.511 370.65 296.105 370.876 295.729 C 371.412 294.829 372.236 294.136 373.215 293.763 C 373.172 293.424 374.179 293.47 375.519 293.696 C 378.141 294.139 382.041 295.269 381.861 295.566 Z" fill="#1f306d" opacity="0.1" style=""/>
  <path d="M 352.028 290.593 C 352.565 291.495 353.39 292.188 354.371 292.56 C 354.328 292.894 354.321 293.231 354.35 293.566 L 358.108 293.34 L 354.45 294.142 C 354.694 295.257 355.335 296.246 356.253 296.923 L 361.352 296.923 L 361.352 297.057 L 366.542 297.057 C 366.542 297.011 366.517 296.969 366.509 296.923 C 366.394 296.5 366.223 296.094 365.999 295.716 C 365.461 294.817 364.636 294.125 363.657 293.75 C 363.931 291.609 362.704 289.559 360.688 288.79 C 360.717 288.577 360.731 288.361 360.73 288.147 L 358.312 289.099 L 360.701 287.695 C 360.564 286.414 359.903 285.246 358.876 284.468 L 356.676 288.034 L 358.325 284.109 C 355.163 282.388 351.324 284.735 351.414 288.334 C 351.434 289.129 351.656 289.907 352.062 290.593 Z" fill="#1f306d" opacity="0.1" style=""/>
  <path d="M 354.997 295.566 C 355.317 296.103 355.743 296.569 356.25 296.936 L 361.348 296.936 L 361.348 297.069 L 366.538 297.069 C 366.538 297.023 366.512 296.982 366.505 296.936 C 366.389 296.513 366.218 296.107 365.995 295.729 C 365.457 294.83 364.632 294.137 363.652 293.763 C 363.695 293.424 362.688 293.47 361.348 293.696 C 358.717 294.139 354.805 295.269 354.997 295.566 Z" fill="#1f306d" opacity="0.1" style=""/>
  <rect x="364.705" y="276.664" width="8.397" height="9.353" fill="#464353" style=""/>
  <rect x="364.705" y="276.664" width="8.397" height="9.353" opacity="0.1" style=""/>
  <polygon points="361.127 294.577 360.955 297.006 363.352 297.006 363.502 293.796 361.127 294.577" fill="#a1616a" style=""/>
  <polygon points="373.753 294.577 373.39 297.006 375.586 297.006 375.723 293.796 373.753 294.577" fill="#a1616a" style=""/>
  <path d="M 366.801 281.345 C 366.801 281.345 366.718 282.56 366.425 282.877 C 366.133 283.195 369.035 286.005 371.319 283.228 C 371.319 283.228 370.337 282.393 370.567 281.458 C 370.796 280.522 366.801 281.345 366.801 281.345 Z" fill="#a1616a" style=""/>
  <path d="M 366.801 281.345 C 366.801 281.345 366.718 282.56 366.425 282.877 C 366.133 283.195 369.035 286.005 371.319 283.228 C 371.319 283.228 370.337 282.393 370.567 281.458 C 370.796 280.522 366.801 281.345 366.801 281.345 Z" opacity="0.1" style=""/>
  <circle cx="368.901" cy="278.23" r="4.2" fill="#a1616a" style=""/>
  <path d="M 368.684 283.95 C 368.684 283.95 366.922 283.921 366.658 282.313 C 366.309 282.616 365.942 282.894 365.557 283.148 C 365.385 283.207 363.703 284.159 363.385 284.217 C 363.075 284.28 362.786 284.425 362.55 284.635 C 361.71 285.295 361.202 286.29 361.16 287.357 C 361.101 289.24 360.872 292.919 360.872 292.919 L 360.96 294.251 L 360.96 295.12 C 360.96 295.12 362.521 295.537 363.465 294.702 C 363.465 294.702 363.465 294.385 363.64 294.285 C 363.815 294.184 363.841 293.763 363.811 293.587 C 363.796 293.327 363.796 293.067 363.811 292.806 C 363.841 292.948 363.925 293.072 364.045 293.153 C 364.114 293.388 364.134 293.636 364.104 293.879 C 364.016 294.051 363.928 294.455 364.016 294.543 C 364.107 294.703 364.083 294.902 363.957 295.036 C 363.798 295.259 363.671 295.503 363.581 295.762 C 363.581 295.762 363.494 296.281 363.406 296.339 C 363.307 296.55 363.24 296.776 363.206 297.007 L 373.644 297.007 C 373.46 296.478 373.321 295.935 373.227 295.383 C 373.256 295.123 372.968 294.051 373.168 293.763 C 373.464 293.38 373.626 292.913 373.632 292.431 L 373.749 293.558 L 373.431 296.063 C 373.431 296.063 375.369 296.673 375.573 296.293 C 375.79 295.632 375.955 294.954 376.066 294.268 C 376.066 294.268 376.53 292.18 376.647 291.892 C 376.764 291.604 377.022 285.813 375.456 284.973 C 373.89 284.134 370.939 282.689 370.863 282.76 C 370.519 283.631 369.602 284.131 368.684 283.95 Z" style="fill: rgb(229, 26, 148);"/>
  <path d="M 363.652 289.612 C 363.355 290.039 363.226 290.562 363.293 291.078 C 363.364 291.589 363.531 292.082 363.786 292.531" fill="none" stroke="#000" stroke-miterlimit="10" opacity="0.1" style=""/>
  <path d="M 373.794 290.009 C 373.87 290.221 373.928 290.439 373.97 290.66 C 374.122 291.22 374.021 291.818 373.694 292.297" fill="none" stroke="#000" stroke-miterlimit="10" opacity="0.1" style=""/>
  <path d="M 367.022 275.358 C 367.35 275.27 367.699 275.305 368.003 275.458 C 368.302 275.611 368.615 275.736 368.939 275.829 C 369.156 275.875 369.356 275.875 369.599 275.908 C 370.424 276.058 371.075 276.695 371.243 277.516 C 371.432 278.543 370.826 279.553 370.826 280.601 C 370.828 281.202 371.039 281.781 371.423 282.243 C 371.745 282.536 372.026 282.872 372.258 283.241 C 372.379 283.508 372.404 283.813 372.521 284.076 C 372.776 284.549 373.199 284.909 373.707 285.086 C 374.21 285.255 374.695 285.473 375.156 285.737 C 375.991 286.292 376.484 287.357 377.452 287.587 C 377.549 287.629 377.66 287.629 377.757 287.587 C 377.846 287.516 377.898 287.409 377.899 287.295 C 377.948 286.88 377.805 286.467 377.511 286.172 C 377.273 285.933 376.926 285.754 376.851 285.433 C 376.776 285.111 376.977 284.835 377.085 284.543 C 377.432 283.595 376.855 282.564 376.2 281.796 C 375.544 281.027 374.759 280.268 374.601 279.29 C 374.563 278.96 374.55 278.628 374.563 278.297 C 374.551 277.613 374.432 276.935 374.212 276.289 C 374.106 275.939 373.936 275.611 373.711 275.324 C 373.502 275.073 373.235 274.881 373.018 274.639 C 372.729 274.24 372.47 273.822 372.241 273.386 C 371.568 272.338 370.418 271.692 369.173 271.662 C 367.999 271.662 366.888 272.18 365.895 272.802 C 365.529 273.001 365.213 273.279 364.968 273.616 C 364.55 274.28 364.676 275.157 364.433 275.908 C 364.191 276.66 363.619 277.215 363.418 277.95 C 363.357 278.166 363.347 278.394 363.389 278.614 C 363.464 278.847 363.563 279.07 363.686 279.282 C 363.907 279.82 364.034 280.392 364.057 280.973 C 364.12 281.675 364.15 282.43 363.782 283.028 C 363.497 283.39 363.142 283.69 362.738 283.913 C 363.148 284.245 363.67 284.405 364.195 284.359 C 364.988 284.393 365.907 284.359 366.4 283.733 C 366.695 283.284 366.814 282.741 366.734 282.209 C 366.695 281.628 366.577 281.055 366.383 280.506 C 366.112 279.733 365.694 279.003 365.574 278.192 C 365.477 277.602 365.628 276.998 365.991 276.522 C 366.141 276.334 366.409 276.238 366.534 276.038 C 366.692 275.77 366.646 275.491 367.022 275.358 Z" fill="#464353" style=""/>
  <g opacity="0.1" transform="matrix(0.41754, 0, 0, 0.41754, 8.748132, 104.450325)" style="">
    <path d="M872.27,519.78a11.91,11.91,0,0,1,.89,4.05c0,.44.07.89.08,1.34a13.76,13.76,0,0,0,0-2.94,11.81,11.81,0,0,0-.89-4,9,9,0,0,1-.71-1.59,3.38,3.38,0,0,0-.07,1.58A8.14,8.14,0,0,0,872.27,519.78Z" transform="translate(-22.2 -101.19)"/>
    <path d="M878.86,529c-1.18,1.49-3.38,1.58-5.28,1.51a7.82,7.82,0,0,1-2.37-.36c-.38.31-.79.6-1.19.88a4.87,4.87,0,0,0,3.49,1.07c1.9.08,4.1,0,5.28-1.5a5,5,0,0,0,.82-3.41A3.83,3.83,0,0,1,878.86,529Z" transform="translate(-22.2 -101.19)"/>
    <path d="M903.87,533a1.61,1.61,0,0,0,.12.33c.12-.28.26-.57.37-.86a4.14,4.14,0,0,0,.2-2.06,4.12,4.12,0,0,1-.13.47C904.17,531.58,903.7,532.28,903.87,533Z" transform="translate(-22.2 -101.19)"/>
    <path d="M890.43,516.16a6.25,6.25,0,0,0,0-2.07,4.91,4.91,0,0,0-3.94-3.85c-.53-.09-1.06-.09-1.58-.19a13.06,13.06,0,0,1-2.24-.89,3.33,3.33,0,0,0-2.35-.25c-.9.32-.79,1-1.19,1.66-.29.48-.94.72-1.3,1.16a5.17,5.17,0,0,0-1,3.69,4.51,4.51,0,0,1,.93-2.09c.36-.45,1-.68,1.3-1.16.4-.67.29-1.34,1.19-1.66a3.33,3.33,0,0,1,2.35.24,12.3,12.3,0,0,0,2.24.89c.52.11,1,.11,1.58.19a4.92,4.92,0,0,1,3.94,3.85A3.93,3.93,0,0,1,890.43,516.16Z" transform="translate(-22.2 -101.19)"/>
    <path d="M906,538.17a1,1,0,0,1-.73,0c-2.32-.55-3.52-3.1-5.5-4.43a20.87,20.87,0,0,0-3.47-1.56,5.14,5.14,0,0,1-2.84-2.41c-.28-.65-.34-1.37-.63-2a11.65,11.65,0,0,0-2-2.39,6.23,6.23,0,0,1-1.44-3.51,7.68,7.68,0,0,0-.09,1.17A6.18,6.18,0,0,0,890.8,527a11.6,11.6,0,0,1,2,2.39c.29.64.35,1.37.63,2a5.16,5.16,0,0,0,2.84,2.42,19.36,19.36,0,0,1,3.47,1.56c2,1.33,3.18,3.88,5.5,4.43a.92.92,0,0,0,.73,0,.91.91,0,0,0,.34-.7,3.3,3.3,0,0,0-.06-1.13A.61.61,0,0,1,906,538.17Z" transform="translate(-22.2 -101.19)"/>
  </g>
  <rect x="354.433" y="272.835" width="5.37" height="7.67" fill="#1f306d" opacity="0.1" style=""/>
  <rect x="355.202" y="273.934" width="3.833" height="5.478" fill="#1f306d" opacity="0.1" style=""/>
  <rect x="377.439" y="273.987" width="8.819" height="4.602" fill="#1f306d" opacity="0.1" style=""/>
  <rect x="378.592" y="274.589" width="6.518" height="3.403" fill="#1f306d" opacity="0.1" style=""/>
</svg>