<svg id="Layer_1" data-name="Layer 1" xmlns="http://www.w3.org/2000/svg" xmlns:xlink="http://www.w3.org/1999/xlink" viewBox="0 0 184.01 83.34"><defs><style>.cls-1{fill:none;}.cls-2{clip-path:url(#clip-path);}.cls-3{fill:#00395f;}.cls-4{fill:#009640;}</style><clipPath id="clip-path" transform="translate(0 0)"><rect class="cls-1" width="184" height="83.34"/></clipPath></defs><title>logo</title><g class="cls-2"><path class="cls-3" d="M41.16,11.19h8.65V15.6H50c2-3.36,4.33-4.85,7.76-4.85a4.45,4.45,0,0,1,1.78.23v7.71h-.23c-5.54-.77-9.1,1.94-9.1,8V39.42h-9V11.19Z" transform="translate(0 0)"/><path class="cls-3" d="M61.3,11.19H70V15.6h.17c2-3.36,4.33-4.85,7.76-4.85a4.43,4.43,0,0,1,1.77.23v7.71h-.22c-5.55-.77-9.1,1.94-9.1,8V39.42h-9V11.19Z" transform="translate(0 0)"/><path class="cls-3" d="M79.61,25.37c0-8.5,6.11-14.95,15.2-14.95S110,16.87,110,25.37s-6,14.94-15.14,14.94S79.61,33.85,79.61,25.37Zm21.18,0c0-5.13-2.11-8.6-6-8.6s-6,3.47-6,8.6,2,8.54,6,8.54S100.79,30.49,100.79,25.37Z" transform="translate(0 0)"/><path class="cls-3" d="M108.5,11.19h9.22l3.1,11.68c.61,2.26,1.28,5.46,1.28,5.46h.11s.66-3.25,1.27-5.62l3-11.52h7.65l3.11,11.52c.61,2.43,1.33,5.68,1.33,5.68h.11s.73-3.25,1.34-5.51l3.16-11.68h8.93L143.4,39.43h-8.49l-3.33-12.79c-.61-2.2-1.22-5.07-1.22-5.07h-.11s-.66,2.87-1.28,5.07l-3.38,12.79h-8.37Z" transform="translate(0 0)"/><path class="cls-3" d="M59.46,74.57c0-6.23,5-8.1,10.87-8.88,5.33-.66,7.21-1.22,7.21-3.14s-1.16-3-3.88-3c-2.88,0-4.33,1.26-4.61,3.63H60.73c.22-5.23,4.27-9.7,12.87-9.7,4.27,0,7.15.77,9.21,2.32,2.44,1.76,3.6,4.51,3.6,8V78.06c0,2.25.23,3.52,1,4v.38H78.65a7.88,7.88,0,0,1-1-3.14h-.11c-1.66,2.37-4.15,3.86-8.44,3.86C63.51,83.17,59.46,80.14,59.46,74.57Zm18.31-2.21V69a22.47,22.47,0,0,1-4.66,1.49c-3.49.77-4.94,1.65-4.94,3.81s1.66,3.14,3.88,3.14C75.43,77.44,77.77,75.4,77.77,72.36Z" transform="translate(0 0)"/><path class="cls-3" d="M89.75,43H98.9V82.46H89.75Z" transform="translate(0 0)"/><path class="cls-3" d="M99.84,54.23h9.33L113.05,67c.84,2.81,1.55,5.68,1.55,5.68h.11s.72-2.87,1.55-5.68l3.94-12.74h9l-9.83,28.23h-9.76Z" transform="translate(0 0)"/><path class="cls-3" d="M127.75,68.28c0-8.43,5.94-14.88,14.59-14.88a14.12,14.12,0,0,1,9.71,3.52c3.38,3.09,5,8,5,13.73H136.62c.55,3.81,2.66,6.18,6.38,6.18A4.71,4.71,0,0,0,147.72,74h8.82a11.54,11.54,0,0,1-4.77,6.68,15.07,15.07,0,0,1-8.87,2.59C133.53,83.28,127.75,76.83,127.75,68.28Zm20.14-3c-.33-3.37-2.44-5.51-5.38-5.51-3.44,0-5.21,2.14-5.82,5.51Z" transform="translate(0 0)"/><path class="cls-3" d="M157.27,73.31h8.55c.33,2.81,2.22,4.19,5.21,4.19,2.72,0,4.45-1,4.45-2.82,0-2.53-3.45-2.81-7.22-3.47-4.94-.83-10.21-2.15-10.21-8.77,0-5.95,5.54-9,12.26-9,8,0,12.37,3.47,12.82,9H174.8c-.34-2.53-2-3.31-4.54-3.31-2.22,0-3.94.83-3.94,2.59,0,2,3.22,2.26,6.82,2.93,5,.83,10.87,2.09,10.87,9.31,0,6.18-5.49,9.38-12.93,9.38C162.76,83.34,157.54,79.53,157.27,73.31Z" transform="translate(0 0)"/><path class="cls-3" d="M11.34,31.75,19.21,10.2l7.55,21.55h-5l2.69,7.67H38.66L24.35,0H14.25L0,39.42H14.1l2.76-7.67Z" transform="translate(0 0)"/><path class="cls-4" d="M53.05,50.28,45.19,71.84,37.64,50.28h5L40,42.62H25.73L40.05,82H50.13L64.4,42.62H50.3l-2.77,7.66Z" transform="translate(0 0)"/></g></svg>