<?xml version="1.0" encoding="utf-8"?>
<!-- Generator: Adobe Illustrator 19.2.1, SVG Export Plug-In . SVG Version: 6.00 Build 0)  -->
<svg version="1.1" id="Layer_1" xmlns="http://www.w3.org/2000/svg" xmlns:xlink="http://www.w3.org/1999/xlink" x="0px" y="0px"
	 viewBox="0 0 465.2 151.7" style="enable-background:new 0 0 465.2 151.7;" xml:space="preserve">
<style type="text/css">
	.st0{fill:#231161;}
</style>
<g>
	<g>
		<path class="st0" d="M127.9,143.8c-0.4,1-1,1.8-1.9,2.2c-0.9,0.5-1.8,0.7-2.7,0.7c-1.2,0-2.3-0.2-3.1-0.7s-1.5-1.1-2-1.9
			c-0.5-0.8-0.8-1.7-1.1-2.7c-0.2-1-0.3-2-0.3-3c0-1.1,0.1-2.1,0.4-3c0.3-0.9,0.7-1.7,1.2-2.4c0.5-0.7,1.2-1.2,1.9-1.6
			c0.8-0.4,1.6-0.6,2.6-0.6c1.2,0,2.3,0.3,3,0.8s1.4,1.2,1.8,1.9v-8.3h-2.1c-0.1-0.2-0.1-0.5-0.1-0.7c0-0.3,0-0.5,0.1-0.7h4v21.1
			h2.1c0.1,0.2,0.1,0.5,0.1,0.7c0,0.3,0,0.5-0.1,0.7h-3.9V143.8z M123.4,145.2c0.5,0,0.9-0.1,1.5-0.3c0.5-0.2,1-0.5,1.5-1
			s0.8-1.1,1.1-1.9c0.3-0.8,0.4-1.9,0.4-3.1c0-0.6,0-1.2-0.1-2c-0.1-0.7-0.3-1.4-0.6-2.1c-0.3-0.7-0.8-1.2-1.4-1.7
			c-0.6-0.4-1.4-0.7-2.3-0.7c-1,0-1.8,0.2-2.4,0.7c-0.6,0.4-1.1,1-1.4,1.6c-0.3,0.6-0.5,1.3-0.6,2c-0.1,0.7-0.1,1.3-0.1,1.9
			c0,0.9,0.1,1.8,0.3,2.6s0.5,1.5,0.8,2.1c0.4,0.6,0.8,1.1,1.4,1.4C122,145,122.7,145.2,123.4,145.2z"/>
		<path class="st0" d="M146.6,145.5c-0.5,0.3-1.2,0.5-1.9,0.8c-0.8,0.3-1.6,0.4-2.5,0.4c-1.3,0-2.4-0.2-3.3-0.7
			c-0.9-0.4-1.7-1-2.3-1.8c-0.6-0.7-1-1.6-1.3-2.5c-0.3-1-0.4-2-0.4-3c0-1,0.1-2.1,0.4-3c0.2-1,0.6-1.8,1.1-2.5
			c0.5-0.7,1.2-1.3,2-1.7c0.8-0.4,1.7-0.7,2.8-0.7c1.1,0,2.1,0.2,2.9,0.6c0.8,0.4,1.4,1,1.9,1.7c0.5,0.7,0.8,1.6,1,2.5
			c0.2,1,0.3,1.9,0.3,3v0.6h-10.4c0,0.8,0.2,1.5,0.4,2.2c0.2,0.7,0.6,1.3,1,1.8c0.4,0.5,1,0.9,1.6,1.2c0.6,0.3,1.4,0.5,2.2,0.5
			c1.1,0,1.9-0.2,2.6-0.5c0.7-0.3,1.3-0.6,1.9-1V145.5z M145.3,137.8c0-0.6-0.1-1.2-0.2-1.8c-0.1-0.6-0.3-1.2-0.6-1.8
			s-0.7-1-1.2-1.3c-0.5-0.3-1.2-0.5-2.1-0.5c-0.8,0-1.5,0.2-2,0.5c-0.5,0.4-1,0.8-1.3,1.4s-0.6,1.1-0.7,1.8
			c-0.1,0.6-0.2,1.2-0.2,1.7H145.3z"/>
		<path class="st0" d="M152.6,144.9v-19.7h-2.1c-0.1-0.2-0.1-0.5-0.1-0.7c0-0.3,0-0.5,0.1-0.7h4v21.1h2.1c0.1,0.2,0.1,0.5,0.1,0.7
			c0,0.3,0,0.5-0.1,0.7h-6.1c-0.1-0.2-0.1-0.5-0.1-0.7c0-0.3,0-0.5,0.1-0.7H152.6z"/>
		<path class="st0" d="M161.9,144.9v-12.2h-2.1c-0.1-0.2-0.1-0.5-0.1-0.7c0-0.3,0-0.5,0.1-0.7h4v13.6h2.1c0.1,0.2,0.1,0.5,0.1,0.7
			c0,0.3,0,0.5-0.1,0.7h-6.1c-0.1-0.2-0.1-0.5-0.1-0.7c0-0.3,0-0.5,0.1-0.7H161.9z M162.4,127.8c-0.4,0-0.7-0.1-1-0.4
			c-0.3-0.3-0.4-0.7-0.4-1.1c0-0.5,0.1-0.8,0.4-1.1c0.3-0.3,0.6-0.4,1-0.4s0.7,0.1,1,0.4c0.3,0.3,0.4,0.7,0.4,1.1
			c0,0.5-0.1,0.8-0.4,1.1C163.1,127.7,162.8,127.8,162.4,127.8z"/>
		<path class="st0" d="M168.8,132.7h-1.6c-0.1-0.2-0.1-0.5-0.1-0.7c0-0.3,0-0.5,0.1-0.7h5.6c0.1,0.2,0.1,0.5,0.1,0.7
			c0,0.3,0,0.5-0.1,0.7h-2.1l4.1,12l4.1-12h-2c-0.1-0.2-0.1-0.5-0.1-0.7c0-0.3,0-0.5,0.1-0.7h5.3c0.1,0.2,0.1,0.5,0.1,0.7
			c0,0.3,0,0.5-0.1,0.7h-1.6l-4.8,13.7h-2.2L168.8,132.7z"/>
		<path class="st0" d="M196.1,145.5c-0.5,0.3-1.2,0.5-1.9,0.8c-0.8,0.3-1.6,0.4-2.5,0.4c-1.3,0-2.4-0.2-3.3-0.7
			c-0.9-0.4-1.7-1-2.3-1.8c-0.6-0.7-1-1.6-1.3-2.5c-0.3-1-0.4-2-0.4-3c0-1,0.1-2.1,0.4-3c0.2-1,0.6-1.8,1.1-2.5
			c0.5-0.7,1.2-1.3,2-1.7c0.8-0.4,1.7-0.7,2.8-0.7c1.1,0,2.1,0.2,2.9,0.6c0.8,0.4,1.4,1,1.9,1.7c0.5,0.7,0.8,1.6,1,2.5
			c0.2,1,0.3,1.9,0.3,3v0.6h-10.4c0,0.8,0.2,1.5,0.4,2.2c0.2,0.7,0.6,1.3,1,1.8c0.4,0.5,1,0.9,1.6,1.2c0.6,0.3,1.4,0.5,2.2,0.5
			c1.1,0,1.9-0.2,2.6-0.5c0.7-0.3,1.3-0.6,1.9-1V145.5z M194.7,137.8c0-0.6-0.1-1.2-0.2-1.8c-0.1-0.6-0.3-1.2-0.6-1.8
			s-0.7-1-1.2-1.3c-0.5-0.3-1.2-0.5-2.1-0.5c-0.8,0-1.5,0.2-2,0.5c-0.5,0.4-1,0.8-1.3,1.4s-0.6,1.1-0.7,1.8
			c-0.1,0.6-0.2,1.2-0.2,1.7H194.7z"/>
		<path class="st0" d="M202.1,144.9v-12.2h-2.1c-0.1-0.2-0.1-0.5-0.1-0.7c0-0.3,0-0.5,0.1-0.7h3.8v3.1c0.1-0.4,0.3-0.7,0.6-1.1
			c0.3-0.4,0.6-0.7,1-1c0.4-0.3,0.8-0.5,1.2-0.7c0.4-0.2,0.9-0.3,1.4-0.3c0.4,0,0.7,0,1,0.1c0.3,0,0.5,0.1,0.7,0.2l-0.2,1.8
			c-0.2-0.1-0.4-0.2-0.6-0.2s-0.6-0.1-1-0.1c-0.4,0-0.8,0.1-1.3,0.3c-0.4,0.2-0.9,0.5-1.2,1c-0.4,0.5-0.7,1.1-0.9,1.8
			c-0.2,0.8-0.4,1.7-0.4,2.8v6h2.3c0.1,0.2,0.1,0.5,0.1,0.7c0,0.3,0,0.5-0.1,0.7h-6.3c-0.1-0.2-0.1-0.5-0.1-0.7c0-0.3,0-0.5,0.1-0.7
			H202.1z"/>
		<path class="st0" d="M214.4,144.9v-12.2h-2.1c-0.1-0.2-0.1-0.5-0.1-0.7c0-0.3,0-0.5,0.1-0.7h4v13.6h2.1c0.1,0.2,0.1,0.5,0.1,0.7
			c0,0.3,0,0.5-0.1,0.7h-6.1c-0.1-0.2-0.1-0.5-0.1-0.7c0-0.3,0-0.5,0.1-0.7H214.4z M214.9,127.8c-0.4,0-0.7-0.1-1-0.4
			c-0.3-0.3-0.4-0.7-0.4-1.1c0-0.5,0.1-0.8,0.4-1.1c0.3-0.3,0.6-0.4,1-0.4s0.7,0.1,1,0.4c0.3,0.3,0.4,0.7,0.4,1.1
			c0,0.5-0.1,0.8-0.4,1.1C215.6,127.7,215.3,127.8,214.9,127.8z"/>
		<path class="st0" d="M223.5,144.9v-12.2h-2.1c-0.1-0.2-0.1-0.5-0.1-0.7c0-0.3,0-0.5,0.1-0.7h3.8v2.4c0.4-0.8,1-1.4,1.8-2
			c0.8-0.6,1.8-0.8,3.2-0.8c1.5,0,2.7,0.4,3.6,1.3c0.8,0.9,1.2,2.2,1.2,3.9v8.8h2.1c0.1,0.2,0.1,0.5,0.1,0.7c0,0.3,0,0.5-0.1,0.7h-6
			c-0.1-0.2-0.1-0.5-0.1-0.7c0-0.3,0-0.5,0.1-0.7h2v-8c0-0.7,0-1.3-0.1-1.8s-0.3-1-0.5-1.4c-0.2-0.4-0.6-0.7-1-0.9
			c-0.4-0.2-1-0.3-1.7-0.3c-0.6,0-1.1,0.1-1.6,0.3c-0.5,0.2-1,0.5-1.4,0.9c-0.4,0.4-0.7,1-1,1.7c-0.2,0.7-0.4,1.6-0.4,2.7v6.8h2
			c0.1,0.2,0.1,0.5,0.1,0.7c0,0.3,0,0.5-0.1,0.7h-6c-0.1-0.2-0.1-0.5-0.1-0.7c0-0.3,0-0.5,0.1-0.7H223.5z"/>
		<path class="st0" d="M241,148.6c0.3,0.2,0.6,0.3,0.9,0.5c0.3,0.2,0.7,0.3,1.1,0.5c0.4,0.1,0.9,0.3,1.4,0.4c0.5,0.1,1,0.1,1.7,0.1
			c1.7,0,2.9-0.4,3.7-1.2s1.2-2.1,1.2-4v-1.1c-0.4,1-1.1,1.6-1.9,2.1c-0.8,0.4-1.7,0.7-2.6,0.7c-1.2,0-2.3-0.2-3.1-0.7
			c-0.8-0.5-1.5-1.1-2-1.9c-0.5-0.8-0.8-1.7-1-2.6c-0.2-1-0.3-2-0.3-3c0-1.1,0.1-2.1,0.4-3c0.3-0.9,0.7-1.7,1.2-2.4
			c0.5-0.7,1.2-1.2,1.9-1.5c0.8-0.4,1.6-0.5,2.6-0.5c0.7,0,1.2,0.1,1.7,0.2c0.5,0.1,1,0.4,1.4,0.6s0.8,0.6,1,0.9
			c0.3,0.4,0.5,0.7,0.8,1.1v-2.5h3.9c0.1,0.2,0.1,0.5,0.1,0.7c0,0.3,0,0.5-0.1,0.7h-2.1v11.7c0,1.4-0.2,2.6-0.5,3.5
			c-0.3,0.9-0.8,1.7-1.4,2.3c-0.6,0.6-1.3,1-2.1,1.2c-0.8,0.2-1.7,0.4-2.8,0.4c-1.1,0-2.2-0.1-3.1-0.4s-1.6-0.5-2.1-0.8V148.6z
			 M246.6,144.9c0.5,0,0.9-0.1,1.5-0.3c0.5-0.2,1-0.5,1.5-1c0.5-0.5,0.8-1.1,1.1-1.9c0.3-0.8,0.4-1.9,0.4-3.1c0-0.6,0-1.2-0.1-1.9
			c-0.1-0.7-0.3-1.4-0.6-2c-0.3-0.6-0.8-1.2-1.4-1.6c-0.6-0.4-1.4-0.7-2.3-0.7c-1,0-1.8,0.2-2.4,0.7c-0.6,0.4-1.1,1-1.4,1.6
			c-0.3,0.6-0.5,1.3-0.6,2c-0.1,0.7-0.1,1.3-0.1,1.8c0,0.9,0.1,1.8,0.3,2.5c0.2,0.8,0.5,1.5,0.8,2c0.4,0.6,0.8,1,1.4,1.4
			C245.1,144.8,245.8,144.9,246.6,144.9z"/>
		<path class="st0" d="M268.6,144.9v-19.7h-2.1c-0.1-0.2-0.1-0.5-0.1-0.7c0-0.3,0-0.5,0.1-0.7h4v9.8c0.5-0.8,1.1-1.4,1.8-1.9
			s1.8-0.8,3-0.8c1,0,1.8,0.2,2.6,0.6c0.8,0.4,1.4,0.9,1.9,1.6c0.5,0.7,0.9,1.5,1.2,2.4c0.3,0.9,0.4,1.9,0.4,2.9c0,1-0.1,2-0.3,3
			c-0.2,1-0.6,1.9-1,2.7c-0.5,0.8-1.1,1.5-2,2c-0.8,0.5-1.9,0.8-3.1,0.8c-1,0-1.9-0.2-2.7-0.7c-0.9-0.5-1.5-1.2-1.9-2.2v2.5h-3.9
			c-0.1-0.2-0.1-0.5-0.1-0.7c0-0.3,0-0.5,0.1-0.7H268.6z M274.9,145.2c0.8,0,1.4-0.2,2-0.5c0.6-0.3,1-0.8,1.4-1.4
			c0.4-0.6,0.6-1.3,0.8-2.1c0.2-0.8,0.3-1.6,0.3-2.6c0-0.5,0-1.2-0.1-1.9s-0.3-1.4-0.6-2c-0.3-0.6-0.8-1.2-1.4-1.6
			c-0.6-0.4-1.4-0.7-2.4-0.7c-1,0-1.8,0.2-2.3,0.7c-0.6,0.4-1.1,1-1.4,1.7c-0.3,0.7-0.5,1.3-0.6,2.1c-0.1,0.7-0.1,1.4-0.1,2
			c0,1.3,0.1,2.3,0.4,3.1c0.3,0.8,0.7,1.5,1.1,1.9s0.9,0.8,1.5,1C273.9,145.1,274.4,145.2,274.9,145.2z"/>
		<path class="st0" d="M296.7,145.5c-0.5,0.3-1.2,0.5-1.9,0.8c-0.8,0.3-1.6,0.4-2.5,0.4c-1.3,0-2.4-0.2-3.3-0.7
			c-0.9-0.4-1.7-1-2.3-1.8c-0.6-0.7-1-1.6-1.3-2.5c-0.3-1-0.4-2-0.4-3c0-1,0.1-2.1,0.4-3c0.2-1,0.6-1.8,1.1-2.5
			c0.5-0.7,1.2-1.3,2-1.7c0.8-0.4,1.7-0.7,2.8-0.7c1.1,0,2.1,0.2,2.9,0.6c0.8,0.4,1.4,1,1.9,1.7c0.5,0.7,0.8,1.6,1,2.5
			c0.2,1,0.3,1.9,0.3,3v0.6H287c0,0.8,0.2,1.5,0.4,2.2c0.2,0.7,0.6,1.3,1,1.8c0.4,0.5,1,0.9,1.6,1.2c0.6,0.3,1.4,0.5,2.2,0.5
			c1,0,1.9-0.2,2.6-0.5c0.7-0.3,1.3-0.6,1.9-1V145.5z M295.3,137.8c0-0.6-0.1-1.2-0.2-1.8c-0.1-0.6-0.3-1.2-0.6-1.8
			c-0.3-0.5-0.7-1-1.2-1.3c-0.5-0.3-1.2-0.5-2.1-0.5c-0.8,0-1.5,0.2-2,0.5c-0.5,0.4-1,0.8-1.3,1.4s-0.6,1.1-0.7,1.8
			c-0.1,0.6-0.2,1.2-0.2,1.7H295.3z"/>
		<path class="st0" d="M310.7,144.2c-0.5,0.7-1.1,1.3-1.9,1.8s-1.9,0.7-3.4,0.7c-1.4,0-2.6-0.4-3.4-1.1s-1.3-1.8-1.3-3.2
			c0-0.7,0.1-1.3,0.3-1.8c0.2-0.6,0.5-1.1,0.9-1.5s1-0.8,1.6-1.1c0.7-0.3,1.5-0.5,2.5-0.6l4.6-0.5v-0.7c0-0.6-0.1-1.2-0.2-1.6
			s-0.3-0.9-0.6-1.2c-0.3-0.3-0.7-0.6-1.2-0.7c-0.5-0.2-1.1-0.3-1.9-0.3c-0.5,0-1,0.1-1.5,0.2c-0.5,0.1-0.9,0.3-1.3,0.4
			c-0.4,0.2-0.8,0.4-1.1,0.6s-0.6,0.4-0.9,0.6v-1.8c0.2-0.1,0.5-0.3,0.8-0.5c0.3-0.2,0.7-0.3,1.1-0.5c0.4-0.1,0.9-0.3,1.5-0.4
			c0.6-0.1,1.2-0.2,1.8-0.2c0.5,0,1,0,1.6,0.1c0.6,0.1,1.2,0.3,1.7,0.7s1,0.8,1.4,1.5c0.4,0.7,0.5,1.5,0.5,2.7v9.1h2
			c0.1,0.2,0.1,0.5,0.1,0.7c0,0.3,0,0.5-0.1,0.7h-3.8V144.2z M310.6,138.4l-4,0.4c-1.3,0.2-2.3,0.5-3,1c-0.7,0.5-1,1.4-1,2.6
			c0,0.9,0.3,1.6,0.9,2.1c0.6,0.5,1.4,0.7,2.4,0.7c0.6,0,1.1-0.1,1.7-0.3c0.6-0.2,1.1-0.4,1.5-0.8c0.4-0.3,0.8-0.8,1.1-1.3
			c0.3-0.5,0.4-1.1,0.4-1.7V138.4z"/>
		<path class="st0" d="M319.2,132.7h-2.1c-0.1-0.2-0.1-0.5-0.1-0.7c0-0.3,0-0.5,0.1-0.7h4v9.4c0,0.7,0,1.3,0.1,1.8s0.3,1,0.5,1.4
			c0.2,0.4,0.6,0.7,1,0.9c0.4,0.2,1,0.3,1.7,0.3c0.5,0,1.1-0.1,1.6-0.3c0.5-0.2,1-0.5,1.4-0.9s0.7-1,1-1.7s0.4-1.6,0.4-2.7v-6.8
			h-2.1c-0.1-0.2-0.1-0.5-0.1-0.7c0-0.3,0-0.5,0.1-0.7h4v13.6h2.1c0.1,0.2,0.1,0.5,0.1,0.7c0,0.3,0,0.5-0.1,0.7H329v-2.4
			c-0.2,0.4-0.5,0.7-0.8,1.1c-0.3,0.3-0.7,0.6-1.1,0.9c-0.4,0.3-0.9,0.5-1.4,0.6c-0.5,0.1-1.1,0.2-1.8,0.2c-1.5,0-2.7-0.4-3.6-1.3
			s-1.2-2.2-1.2-4V132.7z"/>
		<path class="st0" d="M337.3,132.7h-2.4c-0.1-0.2-0.1-0.5-0.1-0.7c0-0.3,0-0.5,0.1-0.7h2.4v-4.1l1.9-1.1v5.2h3.7
			c0.1,0.2,0.1,0.5,0.1,0.7c0,0.3,0,0.5-0.1,0.7h-3.7v9.6c0,0.6,0.1,1,0.2,1.4s0.3,0.6,0.5,0.8c0.4,0.3,0.9,0.5,1.5,0.5
			c0.5,0,0.9,0,1.2-0.1c0.3-0.1,0.6-0.2,0.8-0.3v1.6c-0.3,0.2-0.6,0.3-1,0.3c-0.4,0.1-0.8,0.1-1.2,0.1c-1.2,0-2.2-0.3-2.9-1
			c-0.7-0.7-1-1.7-1-3V132.7z"/>
		<path class="st0" d="M348.2,144.9v-12.2h-2.1c-0.1-0.2-0.1-0.5-0.1-0.7c0-0.3,0-0.5,0.1-0.7h4v13.6h2.1c0.1,0.2,0.1,0.5,0.1,0.7
			c0,0.3,0,0.5-0.1,0.7h-6.1c-0.1-0.2-0.1-0.5-0.1-0.7c0-0.3,0-0.5,0.1-0.7H348.2z M348.7,127.8c-0.4,0-0.7-0.1-1-0.4
			c-0.3-0.3-0.4-0.7-0.4-1.1c0-0.5,0.1-0.8,0.4-1.1c0.3-0.3,0.6-0.4,1-0.4s0.7,0.1,1,0.4s0.4,0.7,0.4,1.1c0,0.5-0.1,0.8-0.4,1.1
			S349.1,127.8,348.7,127.8z"/>
		<path class="st0" d="M357.6,144.9v-12.2h-2.5c-0.1-0.3-0.1-0.5-0.1-0.7c0-0.2,0-0.5,0.1-0.7h2.5v-3c0-0.9,0.1-1.6,0.4-2.2
			c0.2-0.6,0.5-1.1,0.9-1.5c0.4-0.4,0.8-0.6,1.3-0.8c0.5-0.2,1-0.3,1.5-0.3c0.5,0,0.9,0,1.2,0.1s0.6,0.2,0.9,0.3v1.6
			c-0.1-0.1-0.4-0.1-0.7-0.3c-0.3-0.1-0.7-0.2-1.2-0.2c-0.7,0-1.3,0.2-1.8,0.7s-0.7,1.3-0.7,2.4v3.1h3.4c0.1,0.3,0.1,0.5,0.1,0.7
			c0,0.2,0,0.5-0.1,0.7h-3.4v12.2h3c0.1,0.2,0.1,0.5,0.1,0.7c0,0.3,0,0.5-0.1,0.7h-7.2c-0.1-0.2-0.1-0.5-0.1-0.7
			c0-0.3,0-0.5,0.1-0.7H357.6z"/>
		<path class="st0" d="M367.4,132.7h-2.1c-0.1-0.2-0.1-0.5-0.1-0.7c0-0.3,0-0.5,0.1-0.7h4v9.4c0,0.7,0,1.3,0.1,1.8s0.3,1,0.5,1.4
			c0.2,0.4,0.6,0.7,1,0.9c0.4,0.2,1,0.3,1.7,0.3c0.5,0,1.1-0.1,1.6-0.3c0.5-0.2,1-0.5,1.4-0.9s0.7-1,1-1.7s0.4-1.6,0.4-2.7v-6.8
			h-2.1c-0.1-0.2-0.1-0.5-0.1-0.7c0-0.3,0-0.5,0.1-0.7h4v13.6h2.1c0.1,0.2,0.1,0.5,0.1,0.7c0,0.3,0,0.5-0.1,0.7h-3.7v-2.4
			c-0.2,0.4-0.5,0.7-0.8,1.1c-0.3,0.3-0.7,0.6-1.1,0.9c-0.4,0.3-0.9,0.5-1.4,0.6c-0.5,0.1-1.1,0.2-1.8,0.2c-1.5,0-2.7-0.4-3.6-1.3
			s-1.2-2.2-1.2-4V132.7z"/>
		<path class="st0" d="M385.8,144.9v-19.7h-2.1c-0.1-0.2-0.1-0.5-0.1-0.7c0-0.3,0-0.5,0.1-0.7h4v21.1h2.1c0.1,0.2,0.1,0.5,0.1,0.7
			c0,0.3,0,0.5-0.1,0.7h-6.1c-0.1-0.2-0.1-0.5-0.1-0.7c0-0.3,0-0.5,0.1-0.7H385.8z"/>
		<path class="st0" d="M413.8,145.2c-0.2,0.2-0.5,0.3-0.8,0.5c-0.3,0.2-0.7,0.3-1.1,0.5c-0.4,0.2-0.9,0.3-1.4,0.4
			c-0.5,0.1-1.1,0.2-1.7,0.2c-1.1,0-2.1-0.2-3-0.6s-1.6-1-2.2-1.6c-0.6-0.7-1-1.5-1.3-2.4c-0.3-0.9-0.4-1.9-0.4-3
			c0-1.1,0.1-2.2,0.4-3.2s0.7-1.9,1.2-2.6c0.5-0.7,1.2-1.3,2-1.7c0.8-0.4,1.8-0.6,2.9-0.6c0.9,0,1.6,0.2,2.3,0.5s1.2,0.8,1.6,1.4
			v-1.6c0.1,0,0.2-0.1,0.4-0.1s0.3,0,0.4,0c0.3,0,0.5,0,0.7,0.1v5.9c-0.2,0.1-0.5,0.1-0.8,0.1s-0.6,0-0.8-0.1v-0.6
			c0-1.2-0.3-2.2-0.9-3c-0.6-0.7-1.5-1.1-2.7-1.1c-1,0-1.7,0.2-2.3,0.6c-0.6,0.4-1.1,0.9-1.4,1.6c-0.3,0.6-0.6,1.3-0.7,2.1
			s-0.2,1.5-0.2,2.2c0,1,0.1,1.9,0.4,2.6s0.6,1.4,1.1,1.9c0.5,0.5,1,0.9,1.6,1.1c0.6,0.3,1.3,0.4,2,0.4c0.5,0,1-0.1,1.5-0.2
			c0.5-0.1,0.9-0.3,1.3-0.5s0.8-0.4,1.1-0.6s0.6-0.4,0.8-0.6V145.2z"/>
		<path class="st0" d="M424.4,146.7c-1.2,0-2.2-0.2-3-0.7c-0.9-0.5-1.6-1.1-2.1-1.8c-0.6-0.7-1-1.6-1.2-2.6c-0.3-1-0.4-1.9-0.4-2.9
			s0.1-2,0.4-2.9s0.7-1.8,1.2-2.5s1.3-1.3,2.1-1.8c0.9-0.5,1.9-0.7,3-0.7c1.2,0,2.2,0.2,3,0.7c0.9,0.5,1.6,1.1,2.1,1.8
			c0.6,0.7,1,1.6,1.3,2.5c0.3,1,0.4,1.9,0.4,2.9s-0.1,2-0.4,2.9s-0.7,1.8-1.2,2.6c-0.6,0.8-1.3,1.4-2.1,1.8
			C426.6,146.5,425.6,146.7,424.4,146.7z M424.4,145.1c1,0,1.8-0.2,2.5-0.7c0.6-0.5,1.1-1,1.5-1.7s0.6-1.4,0.7-2.1
			c0.1-0.7,0.2-1.4,0.2-1.9c0-0.5-0.1-1.1-0.2-1.9c-0.1-0.7-0.4-1.4-0.7-2.1s-0.8-1.2-1.5-1.7c-0.6-0.5-1.4-0.7-2.5-0.7
			s-1.8,0.2-2.5,0.7c-0.6,0.5-1.1,1-1.5,1.7s-0.6,1.4-0.7,2.1c-0.1,0.7-0.2,1.3-0.2,1.9c0,0.5,0.1,1.1,0.2,1.9
			c0.1,0.7,0.4,1.4,0.7,2.1c0.3,0.7,0.8,1.2,1.5,1.7S423.3,145.1,424.4,145.1z"/>
		<path class="st0" d="M445.8,143.8c-0.4,1-1,1.8-1.9,2.2s-1.8,0.7-2.7,0.7c-1.2,0-2.3-0.2-3.1-0.7c-0.8-0.5-1.5-1.1-2-1.9
			s-0.8-1.7-1.1-2.7s-0.3-2-0.3-3c0-1.1,0.1-2.1,0.4-3c0.3-0.9,0.7-1.7,1.2-2.4c0.5-0.7,1.2-1.2,1.9-1.6s1.6-0.6,2.6-0.6
			c1.2,0,2.3,0.3,3,0.8s1.4,1.2,1.8,1.9v-8.3h-2.1c-0.1-0.2-0.1-0.5-0.1-0.7c0-0.3,0-0.5,0.1-0.7h4v21.1h2.1
			c0.1,0.2,0.1,0.5,0.1,0.7c0,0.3,0,0.5-0.1,0.7h-3.9V143.8z M441.2,145.2c0.5,0,0.9-0.1,1.5-0.3c0.5-0.2,1-0.5,1.5-1
			s0.8-1.1,1.1-1.9c0.3-0.8,0.4-1.9,0.4-3.1c0-0.6,0-1.2-0.1-2c-0.1-0.7-0.3-1.4-0.6-2.1c-0.3-0.7-0.8-1.2-1.4-1.7
			c-0.6-0.4-1.4-0.7-2.3-0.7c-1,0-1.8,0.2-2.4,0.7c-0.6,0.4-1.1,1-1.4,1.6c-0.3,0.6-0.5,1.3-0.6,2c-0.1,0.7-0.1,1.3-0.1,1.9
			c0,0.9,0.1,1.8,0.3,2.6c0.2,0.8,0.5,1.5,0.8,2.1c0.4,0.6,0.8,1.1,1.4,1.4C439.8,145,440.5,145.2,441.2,145.2z"/>
		<path class="st0" d="M464.5,145.5c-0.5,0.3-1.2,0.5-1.9,0.8c-0.8,0.3-1.6,0.4-2.5,0.4c-1.3,0-2.4-0.2-3.3-0.7
			c-0.9-0.4-1.7-1-2.3-1.8c-0.6-0.7-1-1.6-1.3-2.5c-0.3-1-0.4-2-0.4-3c0-1,0.1-2.1,0.4-3c0.2-1,0.6-1.8,1.1-2.5
			c0.5-0.7,1.2-1.3,2-1.7c0.8-0.4,1.7-0.7,2.8-0.7c1.1,0,2.1,0.2,2.9,0.6c0.8,0.4,1.4,1,1.9,1.7c0.5,0.7,0.8,1.6,1,2.5
			c0.2,1,0.3,1.9,0.3,3v0.6h-10.4c0,0.8,0.2,1.5,0.4,2.2c0.2,0.7,0.6,1.3,1,1.8c0.4,0.5,1,0.9,1.6,1.2c0.6,0.3,1.4,0.5,2.2,0.5
			c1,0,1.9-0.2,2.6-0.5c0.7-0.3,1.3-0.6,1.9-1V145.5z M463.1,137.8c0-0.6-0.1-1.2-0.2-1.8c-0.1-0.6-0.3-1.2-0.6-1.8
			c-0.3-0.5-0.7-1-1.2-1.3c-0.5-0.3-1.2-0.5-2.1-0.5c-0.8,0-1.5,0.2-2,0.5c-0.5,0.4-1,0.8-1.3,1.4s-0.6,1.1-0.7,1.8
			c-0.1,0.6-0.2,1.2-0.2,1.7H463.1z"/>
	</g>
	<path class="st0" d="M121.8,96.6V70.2h-4.2c-0.4-1.1-0.6-2.2-0.6-3.3c0-1.1,0.2-2.2,0.6-3.3h14v32.9h4.2c0.4,1.1,0.6,2.2,0.6,3.3
		c0,1.1-0.2,2.2-0.6,3.3h-18.2c-0.4-1.1-0.6-2.2-0.6-3.3c0-1.1,0.2-2.1,0.6-3.3H121.8z"/>
	<path class="st0" d="M145.5,96.6V70.2h-4.6c-0.4-1.1-0.6-2.2-0.6-3.3c0-1.1,0.2-2.2,0.6-3.3h13l0.4,4.6c0.9-1.4,2.3-2.6,4.2-3.8
		c1.9-1.2,4.3-1.8,7.2-1.8c4.3,0,7.6,1.2,9.8,3.7c2.3,2.5,3.4,6,3.4,10.6v19.6h4.6c0.4,1.1,0.6,2.2,0.6,3.3c0,1.1-0.2,2.2-0.6,3.3
		h-18.3c-0.4-1.1-0.6-2.2-0.6-3.3c0-1.1,0.2-2.1,0.6-3.3h3.9V78c0-2.6-0.4-4.6-1.2-6c-0.8-1.4-2.4-2.1-4.9-2.1
		c-0.9,0-1.8,0.2-2.7,0.5c-0.9,0.3-1.8,0.8-2.5,1.6c-0.8,0.8-1.4,1.9-1.9,3.2c-0.5,1.4-0.8,3.1-0.8,5.3v16h3.9
		c0.4,1.1,0.6,2.2,0.6,3.3c0,1.1-0.2,2.2-0.6,3.3h-18.3c-0.4-1.1-0.6-2.2-0.6-3.3c0-1.1,0.2-2.1,0.6-3.3H145.5z"/>
	<path class="st0" d="M214.8,98.5c-2.6,3.8-6.2,5.7-10.8,5.7c-3.2,0-5.9-0.7-8.1-2c-2.2-1.3-3.9-3-5.2-5c-1.3-2-2.2-4.3-2.7-6.7
		c-0.5-2.5-0.8-4.8-0.8-7.2c0-2.9,0.4-5.6,1.1-8.1c0.8-2.5,1.9-4.7,3.3-6.6c1.4-1.9,3.2-3.3,5.4-4.4c2.1-1.1,4.6-1.6,7.3-1.6
		c2.1,0,4.1,0.4,5.8,1.3c1.8,0.8,3.1,2,4.1,3.5V52.1h-4.3c-0.5-1.1-0.7-2.1-0.7-3.3c0-1.1,0.2-2.2,0.7-3.3h14v51h4.4
		c0.4,1.1,0.6,2.2,0.6,3.3c0,1.1-0.2,2.2-0.6,3.3h-13.2L214.8,98.5z M205.8,97c0.8,0,1.6-0.2,2.6-0.5c1-0.4,1.9-1,2.8-2
		c0.9-1,1.7-2.3,2.3-4.1c0.6-1.7,0.9-4,0.9-6.7c0-1.1-0.1-2.4-0.3-4c-0.2-1.5-0.6-3-1.1-4.5c-0.6-1.4-1.4-2.7-2.6-3.7
		c-1.1-1-2.7-1.5-4.6-1.5c-2,0-3.6,0.5-4.8,1.5c-1.2,1-2,2.3-2.7,3.7c-0.6,1.5-1,3-1.1,4.7c-0.2,1.6-0.2,3.1-0.2,4.3
		c0,3.8,0.8,6.9,2.3,9.2C201,95.8,203.1,97,205.8,97z"/>
	<path class="st0" d="M261,105.2c1,0.6,1.9,1.1,3,1.6c1,0.5,2.1,1,3.2,1.4c1.1,0.4,2.4,0.8,3.8,1c1.4,0.3,2.9,0.4,4.6,0.4
		c1.5,0,2.9-0.2,4.1-0.5c1.2-0.3,2.3-0.9,3.2-1.8c0.9-0.9,1.5-2.1,2-3.6c0.5-1.5,0.7-3.6,0.7-6c-1.3,1.9-2.8,3.3-4.4,4.1
		s-3.6,1.3-5.8,1.3c-3.2,0-5.9-0.6-8.1-1.9c-2.2-1.2-3.9-2.8-5.2-4.8c-1.3-2-2.2-4.2-2.7-6.6c-0.5-2.4-0.8-4.8-0.8-7.1
		c0-2.9,0.4-5.6,1.1-8c0.8-2.5,1.9-4.6,3.3-6.4c1.4-1.8,3.2-3.2,5.4-4.2c2.1-1,4.6-1.5,7.3-1.5c2.4,0,4.6,0.5,6.5,1.6
		c1.9,1,3.2,2.4,4.1,4.1l0.4-4.6h13.3c0.4,1.1,0.6,2.2,0.6,3.3c0,1.1-0.2,2.2-0.6,3.3h-4.6v26.9c0,3.7-0.5,6.8-1.4,9.3
		c-0.9,2.5-2.2,4.5-3.9,6.1c-1.7,1.5-3.7,2.6-6,3.3c-2.3,0.7-4.9,1-7.8,1c-3.3,0-6.3-0.4-8.9-1.1c-2.7-0.7-4.8-1.5-6.3-2.3V105.2z
		 M277.2,95.9c0.8,0,1.6-0.2,2.6-0.6c1-0.4,1.9-1,2.8-2c0.9-0.9,1.7-2.2,2.3-3.9c0.6-1.6,0.9-3.8,0.9-6.3c0-1.1-0.1-2.4-0.3-3.9
		c-0.2-1.5-0.6-2.9-1.1-4.3c-0.6-1.4-1.4-2.5-2.6-3.5c-1.1-1-2.7-1.4-4.6-1.4c-2,0-3.6,0.5-4.8,1.4c-1.2,1-2,2.1-2.7,3.5
		c-0.6,1.4-1,2.9-1.1,4.5c-0.2,1.6-0.2,3-0.2,4.2c0,1.8,0.2,3.4,0.6,4.9c0.4,1.5,1,2.8,1.7,3.9c0.7,1.1,1.6,2,2.7,2.6
		C274.6,95.6,275.8,95.9,277.2,95.9z"/>
	<path class="st0" d="M322.2,104.2c-3.3,0-6.2-0.6-8.7-1.8s-4.4-2.8-6-4.8c-1.6-2-2.7-4.2-3.5-6.7c-0.7-2.5-1.1-5-1.1-7.5
		s0.4-5,1.1-7.5c0.7-2.5,1.9-4.7,3.5-6.6c1.6-1.9,3.6-3.5,6-4.7c2.4-1.2,5.3-1.8,8.7-1.8c3.3,0,6.2,0.6,8.7,1.8
		c2.4,1.2,4.4,2.8,6,4.7c1.5,1.9,2.7,4.2,3.5,6.6c0.8,2.5,1.1,5,1.1,7.5s-0.4,5-1.1,7.5c-0.8,2.5-1.9,4.7-3.5,6.7
		c-1.5,2-3.5,3.6-6,4.8C328.4,103.6,325.6,104.2,322.2,104.2z M322.2,97c1.9,0,3.4-0.5,4.6-1.4c1.2-0.9,2.1-2,2.8-3.4
		c0.7-1.4,1.2-2.8,1.4-4.4c0.3-1.6,0.4-3,0.4-4.4s-0.1-2.8-0.4-4.3s-0.8-3-1.4-4.4c-0.7-1.4-1.6-2.5-2.8-3.4
		c-1.2-0.9-2.7-1.4-4.6-1.4s-3.4,0.5-4.6,1.4c-1.2,0.9-2.1,2-2.8,3.4c-0.7,1.4-1.2,2.8-1.4,4.4c-0.3,1.6-0.4,3-0.4,4.3
		s0.1,2.8,0.4,4.4c0.3,1.6,0.8,3.1,1.4,4.4c0.7,1.4,1.6,2.5,2.8,3.4C318.8,96.5,320.4,97,322.2,97z"/>
	<path class="st0" d="M350.3,68.3h-6.1c-0.2-0.6-0.3-1.2-0.3-1.8c0-0.7,0.1-1.3,0.3-1.8h6.1V54.1l4.9-2.7v13.3h9.4
		c0.2,0.6,0.3,1.2,0.3,1.8c0,0.7-0.1,1.3-0.3,1.8h-9.4v24.6c0,1.5,0.2,2.6,0.5,3.5c0.3,0.9,0.8,1.5,1.3,2c1,0.8,2.2,1.2,3.7,1.2
		c1.2,0,2.2-0.1,3-0.4c0.8-0.3,1.5-0.5,2-0.8v4c-0.7,0.4-1.6,0.7-2.7,0.9c-1.1,0.2-2,0.3-3,0.3c-3.2,0-5.6-0.9-7.3-2.7
		c-1.7-1.8-2.5-4.3-2.5-7.6V68.3z"/>
	<path class="st0" d="M376.1,99.5V68.3h-5.4c-0.2-0.6-0.3-1.2-0.3-1.8c0-0.7,0.1-1.3,0.3-1.8h9.6v7.8c0.4-0.9,0.9-1.8,1.6-2.8
		c0.7-0.9,1.5-1.8,2.5-2.5c0.9-0.8,2-1.4,3.1-1.9c1.1-0.5,2.4-0.7,3.7-0.7c1,0,1.8,0.1,2.4,0.2c0.7,0.1,1.2,0.3,1.7,0.4l-0.5,4.7
		c-0.4-0.2-0.9-0.4-1.5-0.6c-0.6-0.2-1.5-0.3-2.7-0.3c-1.1,0-2.2,0.3-3.3,0.8c-1.1,0.5-2.2,1.4-3.2,2.5c-1,1.2-1.8,2.7-2.4,4.7
		c-0.6,1.9-0.9,4.3-0.9,7.1v15.4h5.8c0.2,0.6,0.3,1.2,0.3,1.8c0,0.7-0.1,1.3-0.3,1.8h-16c-0.2-0.6-0.3-1.2-0.3-1.8
		c0-0.7,0.1-1.3,0.3-1.8H376.1z"/>
	<path class="st0" d="M426.4,101.1c-1.3,0.7-3,1.4-5,2c-2,0.7-4.1,1-6.3,1c-3.3,0-6.2-0.6-8.5-1.7c-2.4-1.1-4.3-2.6-5.8-4.5
		c-1.5-1.9-2.6-4.1-3.3-6.5c-0.7-2.4-1.1-5-1.1-7.7c0-2.7,0.3-5.2,0.9-7.7c0.6-2.5,1.6-4.6,2.9-6.5c1.3-1.8,3-3.3,5-4.4
		c2-1.1,4.4-1.7,7.2-1.7c2.9,0,5.4,0.5,7.4,1.6c2,1.1,3.6,2.6,4.9,4.4c1.2,1.8,2.1,4,2.7,6.4c0.5,2.4,0.8,5,0.8,7.6v1.5h-26.6
		c0.1,2,0.5,3.9,1.1,5.7c0.6,1.8,1.5,3.4,2.5,4.7c1.1,1.3,2.5,2.4,4.1,3.2c1.6,0.8,3.5,1.2,5.7,1.2c2.7,0,4.9-0.4,6.6-1.2
		c1.7-0.8,3.4-1.6,4.8-2.5V101.1z M422.9,81.4c0-1.5-0.1-3-0.4-4.6c-0.3-1.6-0.8-3.1-1.6-4.5c-0.8-1.4-1.8-2.5-3.2-3.4
		c-1.4-0.9-3.1-1.3-5.3-1.3c-2,0-3.7,0.5-5.1,1.4c-1.4,0.9-2.5,2.1-3.3,3.5c-0.9,1.4-1.5,2.9-1.9,4.5s-0.6,3.1-0.6,4.4H422.9z"/>
	<path class="st0" d="M463.2,101.1c-1.3,0.7-3,1.4-5,2c-2,0.7-4.1,1-6.3,1c-3.3,0-6.2-0.6-8.5-1.7c-2.4-1.1-4.3-2.6-5.8-4.5
		c-1.5-1.9-2.6-4.1-3.3-6.5c-0.7-2.4-1.1-5-1.1-7.7c0-2.7,0.3-5.2,0.9-7.7c0.6-2.5,1.6-4.6,2.9-6.5c1.3-1.8,3-3.3,5-4.4
		c2-1.1,4.4-1.7,7.2-1.7c2.9,0,5.4,0.5,7.4,1.6c2,1.1,3.6,2.6,4.9,4.4c1.2,1.8,2.1,4,2.7,6.4c0.5,2.4,0.8,5,0.8,7.6v1.5h-26.6
		c0.1,2,0.5,3.9,1.1,5.7c0.6,1.8,1.5,3.4,2.5,4.7c1.1,1.3,2.5,2.4,4.1,3.2c1.6,0.8,3.5,1.2,5.7,1.2c2.7,0,4.9-0.4,6.6-1.2
		c1.7-0.8,3.4-1.6,4.8-2.5V101.1z M459.7,81.4c0-1.5-0.1-3-0.4-4.6c-0.3-1.6-0.8-3.1-1.6-4.5c-0.8-1.4-1.8-2.5-3.2-3.4
		c-1.4-0.9-3.1-1.3-5.3-1.3c-2,0-3.7,0.5-5.1,1.4c-1.4,0.9-2.5,2.1-3.3,3.5c-0.9,1.4-1.5,2.9-1.9,4.5s-0.6,3.1-0.6,4.4H459.7z"/>
	<circle class="st0" cx="125.7" cy="52.6" r="5.8"/>
	<path class="st0" d="M239,96.6V70.2h-4.2c-0.4-1.1-0.6-2.2-0.6-3.3c0-1.1,0.2-2.2,0.6-3.3h14v32.9h4.2c0.4,1.1,0.6,2.2,0.6,3.3
		c0,1.1-0.2,2.2-0.6,3.3h-18.2c-0.4-1.1-0.6-2.2-0.6-3.3c0-1.1,0.2-2.1,0.6-3.3H239z"/>
	<circle class="st0" cx="242.9" cy="52.6" r="5.8"/>
	<g>
		<g>
			<path class="st0" d="M76.6,98.6c-2.1,0-4.1-1.1-5.3-3c-1.7-2.9-0.8-6.7,2.1-8.4C85.7,79.9,93,66.9,93,52.6
				c0-22.3-18.1-40.4-40.4-40.4S12.3,30.4,12.3,52.6c0,14.2,7.3,27.2,19.5,34.6c2.9,1.8,3.8,5.5,2.1,8.4c-1.8,2.9-5.5,3.8-8.4,2.1
				C9.5,88,0,71.2,0,52.6C0,23.6,23.6,0,52.6,0c29,0,52.6,23.6,52.6,52.6c0,18.4-9.8,35.6-25.5,45.1C78.7,98.3,77.6,98.6,76.6,98.6z
				"/>
		</g>
		<circle class="st0" cx="52.6" cy="52.6" r="6.1"/>
		<g>
			<path class="st0" d="M52.6,127.7c-3.4,0-6.1-2.7-6.1-6.1v-45c0-3.4,2.7-6.1,6.1-6.1s6.1,2.7,6.1,6.1v45
				C58.8,125,56,127.7,52.6,127.7z"/>
		</g>
	</g>
</g>
</svg>
