<?xml version="1.0" encoding="utf-8"?>
<svg viewBox="0 0 500 500" xmlns="http://www.w3.org/2000/svg">
  <defs>
    <linearGradient id="70ce31e8-5126-44c6-9ded-adf44b0dced1" x1="489.88" y1="814.11" x2="489.88" y2="49.28" gradientUnits="userSpaceOnUse">
      <stop offset="0" stop-color="gray" stop-opacity="0.25"/>
      <stop offset="0.54" stop-color="gray" stop-opacity="0.12"/>
      <stop offset="1" stop-color="gray" stop-opacity="0.1"/>
    </linearGradient>
  </defs>
  <title>businessman</title>
  <path d="M 278.968 98.299 C 252.592 97.384 227.472 88.873 203.498 79.569 C 179.524 70.264 155.737 59.941 129.995 54.983 C 113.436 51.81 94.502 51.359 81.16 60.233 C 68.324 68.777 64.171 83.524 61.945 97.208 C 60.293 107.504 59.28 118.34 63.879 127.974 C 67.069 134.667 72.737 140.292 76.653 146.704 C 90.293 169.003 80.653 196.503 65.873 218.279 C 58.943 228.492 50.9 238.238 45.551 249.128 C 40.202 260.019 37.723 272.457 42.406 283.552 C 47.044 294.57 58.101 302.799 70.076 308.611 C 94.403 320.406 123.065 323.782 151.016 325.688 C 212.891 329.919 275.09 328.09 337.129 326.24 C 360.084 325.556 383.143 324.868 405.73 321.321 C 418.273 319.348 431.224 316.219 440.33 308.65 C 451.898 299.059 454.752 282.825 447.006 270.8 C 434.012 250.632 398.094 245.619 389.011 223.975 C 384.015 212.06 389.149 198.789 396.409 187.744 C 411.993 164.057 438.11 143.244 439.487 116.131 C 440.435 97.527 427.875 78.891 408.462 70.083 C 388.112 60.856 359.892 62.018 344.88 77.293 C 329.422 93.059 302.253 99.109 278.968 98.299 Z" fill="#1f306d" opacity="0.1" style=""/>
  <ellipse cx="226.579" cy="448.088" rx="167.45" ry="22.652" opacity="0.1" style="fill: rgb(229, 26, 148);"/>
  <path d="M632.51,258.88s-9.41-18.57-8.14-24.09-6.62-17.31-6.62-17.31l.51-19.56s-1.09,2-6.77,3.75c-.48-.63-1-1.25-1.54-1.84a40.32,40.32,0,0,0-6.82-5.69l-10-21.58-9.67-14.81s-15.25-31-31-37.84l-2.48-4.85a.38.38,0,0,0,.15-.49l-2.52-4.93a.39.39,0,0,0-.49-.18l-2.41-4.72a37.91,37.91,0,0,0-7-16.89c-.25-.35-.52-.67-.78-1l3.92-.14c3.44-.13,7.28-.43,9.59-3a8.77,8.77,0,0,0,1.79-3.3,14,14,0,0,0,.58-2.93c0-.15,0-.3,0-.44q0-.51,0-1c0-.27,0-.53,0-.8s0-.43,0-.64-.11-.69-.17-1c0-.13,0-.26-.08-.39a11.66,11.66,0,0,0-.31-1.16,1.55,1.55,0,0,1-.07-.23c-.14-.4-.29-.8-.46-1.19a1.11,1.11,0,0,1-.07-.16c-.18-.39-.38-.77-.59-1.14l-.06-.12v0a4,4,0,0,0-.25-.45c-2.71-4.26-7.47-6.75-12-9a138.69,138.69,0,0,0-13-6,70,70,0,0,0-51,.72,20.19,20.19,0,0,0-4.54,2.42,23.46,23.46,0,0,0-4.95,5.82l-7.75,11.45A16.18,16.18,0,0,0,455,78.79c-1.45,5.44,3.1,10.89,2.59,16.5-.26,2.79-1.76,5.35-2.05,8.14-.37,3.6,1.3,7.07,2.93,10.32l11.09,22c-.59,2.89-1.24,5.85-1.95,8.71h0c-5.11,5.28-6.83,8.16-7.3,9.72l-.15.08h0a9,9,0,0,0-2.56,2.5L447.06,167s-18.32,4.76-22.13,10.79c0,0-28.75-1.26-28.5,38.89,0,0-1.27,15.06-2,17.07s0,22.33,0,22.33l-.34,41.16s-1.1,21.83,0,29.61,2.37,37.39,2.37,37.39,6.87,28.86,4.33,39.15c-2.44,9.85,0,31.39,4,31.48.76,1.57,1.63,2.34,2.58,1.9a11,11,0,0,1,1.27-.46V460.9s-4.95,34.45.6,41c-3.68,5.24-8,14.18-9.1,16.53l-38.9-2.09-4.95,1.39h0L351.75,519,349,582.27l1.1.08-.08,1.93,2.6.19L349,648.19l53.85,4.43c-2.37,5.31-5.12,11-6.19,11.55-2,1-6.36-2-7.38-.76s-4.07,2.76-7.63,2-5.85,3.26-5.85,3.26.52.46,1.3,1.31c-5.78-.7-13.09,2.4-17.06,4.4-1.78.9-2.89,1.57-2.89,1.57H346.65l5.77,36.81,4.07,2.78,1,29s16.28,50.19,23.74,49.86a3.37,3.37,0,0,0,2.51-1.26c4-4.62,1.23-20.49,1.23-20.49V746.23s6.1-2.68,5.42-4.69,9.84-24,10.78-26a.17.17,0,0,0,.08-.16c0-2.26,4.58-4.77,4.32-5.77s11.2-7.28,12-12.8,8.39-2.51,8.39-2.51l9.66-11.1c.29,13.53.84,23,1.79,25.4,4.58,11.55,6.36,29.62,6.36,29.62s-2.8,13.8,0,18.32c1.72,2.76,5.72,5.72,8.5,8.17-2.89,8.76-2.48,27.38-2.48,27.38v10.7l21.37,6s.67-5.35,1.69-5.35,14.59,10.37,14.59,10.37,52.24.67,65.46,0c5-.25,6.36-2.4,5.59-5-1.27-4.33-8.4-9.94-14.74-10.37-10.18-.67-23.07-11.37-23.07-11.37s1-2.35-4.41-5.69c-3.74-2.3-14.09-11.61-20.49-17.06.3-.41.61-.82.9-1.26,0,0-8.65-12-6.86-17.32s-.77-13-.77-13-4.83-14.81-4.83-22.34c0-4.77-.72-31.9-1.24-51.14l4.46.37.09-1.92,2,.18,18.91,1.74-.58-20.21c9.11-4,16.69-7.71,19.83-10.08,10.68-8,19.84-8.53,19.84-8.53s21.62-11.54,24.93-16.31,3-39.4,3-39.4l-1.78-74.22v-.06s-1.52-35.88-4.58-43.66c-1.12-2.88-3.89-12.48-6.92-23.44a18.11,18.11,0,0,1,5.22.22c.11,2.68.18,4.52.18,5.15,0,4.26,6.1,7.88,6.1,7.88l-4.32-96V275.66c13.32,4.24,45.53,5.56,45.53,5.56C638.1,280,632.51,258.88,632.51,258.88ZM506.87,176.4l-.07,0a66.59,66.59,0,0,1,1.85-7.45ZM419.45,505.67c7.89,1.3,17,.92,17.69-.61.07-.15.16-.42.28-.77.25.44.49.89.74,1.35l-.77,14.48v.33l-26-1.4C413.21,511.3,416.65,507.52,419.45,505.67Zm86.67,73.06-.67-23.45c1.16-4.32,2.2-8.24,3.09-11.6.4,2.79.74,5.36,1,7.73C512,573.66,508.37,578,506.12,578.73Zm74-351.58c-1.49.57-7.16-3-12.54-6.7,0-.68.05-1.35.08-2,.76-15.31-24.17-24.84-31.8-26.6a27.41,27.41,0,0,1-5.36-2,125,125,0,0,1-11.84-6.69l.1-.29s-9.84-6.23-10.05-14a132.92,132.92,0,0,1,8.46-20.53c.19-.39.4-.8.6-1.19a39.25,39.25,0,0,0,12.8-6.78c1.53,20,30.47,37.21,30.47,37.21l3.09,5,.73,1.18c-1.56.92-2.31,1.66-1.78,2.09,2.2,1.76,7.52,11.72,9.72,15.93a.06.06,0,0,0,0,0c.6,1.14,1,1.85,1,1.85s4.73,12.87,7.44,23.64A2,2,0,0,0,580.1,227.15Z" transform="matrix(0.5508744716644287, 0, 0, 0.5508744716644287, -80.52689266204845, 2.100025051514052)" fill="url(#70ce31e8-5126-44c6-9ded-adf44b0dced1)" style=""/>
  <path d="M 245.205 98.657 L 245.018 98.905 L 244.378 99.759 L 232.122 108.418 L 229.522 104.144 L 227.869 101.389 C 227.869 101.389 203.438 86.735 213.942 72.612 C 224.448 58.487 239.971 90.514 239.971 90.514 Z" fill="#ffc5d3" style=""/>
  <rect x="301.356" y="61.753" width="0.419" height="3.449" rx="0.38" ry="0.38" transform="matrix(0.893136, -0.449787, 0.449787, 0.893136, -76.841537, 144.545197)" fill="#3a3768" style=""/>
  <rect x="287.22" y="65.758" width="0.237" height="1.135" rx="0.21" ry="0.21" transform="matrix(0.893136, -0.449787, 0.449787, 0.893136, -79.6455, 138.446991)" fill="#3a3768" style=""/>
  <rect x="288.333" y="67.565" width="0.264" height="1.978" rx="0.24" ry="0.24" transform="matrix(0.893136, -0.449787, 0.449787, 0.893136, -80.526894, 139.190704)" fill="#3a3768" style=""/>
  <rect x="289.54" y="69.945" width="0.254" height="1.994" rx="0.23" ry="0.23" transform="matrix(0.893136, -0.449787, 0.449787, 0.893136, -81.474403, 139.989456)" fill="#3a3768" style=""/>
  <rect x="291.054" y="57.793" width="13.992" height="28.436" rx="2.24" ry="2.24" transform="matrix(0.893136, -0.449787, 0.449787, 0.893136, -81.061249, 143.873123)" style="fill: rgb(229, 26, 148);"/>
  <path d="M 214.962 60.31 C 214.713 60.433 214.614 60.736 214.741 60.982 L 214.786 61.076 C 214.914 61.324 214.814 61.628 214.565 61.754 L 209.266 64.42 C 209.019 64.547 208.717 64.448 208.594 64.2 L 208.544 64.106 C 208.421 63.857 208.12 63.757 207.872 63.88 L 206.842 64.404 C 206.367 64.637 206.175 65.216 206.418 65.686 L 217.677 88.035 C 217.918 88.507 218.493 88.696 218.966 88.46 L 228.211 83.805 C 228.681 83.565 228.871 82.989 228.634 82.516 L 217.369 60.156 C 217.13 59.682 216.553 59.492 216.08 59.732 Z" style="paint-order: fill; fill: rgb(229, 26, 148);"/>
  <rect x="290.818" y="60.216" width="1.955" height="0.396" rx="0.36" ry="0.36" transform="matrix(0.893136, -0.449787, 0.449787, 0.893136, -76.511017, 139.818695)" fill="#e6e8ec" style=""/>
  <circle cx="212.604" cy="61.842" r="0.226" fill="#e6e8ec" style=""/>
  <path d="M 222.894 146.032 L 219.451 238.425 C 219.451 238.425 231.02 234.569 232.81 237.46 C 234.601 240.353 230.882 191.187 230.882 191.187 Z" fill="#5f5570" style=""/>
  <path d="M 222.894 146.032 L 219.451 238.425 C 219.451 238.425 231.02 234.569 232.81 237.46 C 234.601 240.353 230.882 191.187 230.882 191.187 Z" opacity="0.15" style=""/>
  <path d="M 223.445 450.572 C 216.284 450.941 188.008 450.572 188.008 450.572 C 188.008 450.572 180.659 444.881 180.108 444.881 C 179.557 444.881 179.194 447.818 179.194 447.818 L 167.625 444.512 L 167.625 438.64 C 167.625 438.64 167.256 421.921 170.743 421.193 C 174.23 420.467 189.66 421.193 189.66 421.193 C 190.211 421.012 200.678 430.928 203.614 432.762 C 206.55 434.597 205.999 435.886 205.999 435.886 C 205.999 435.886 212.978 441.758 218.487 442.127 C 221.919 442.358 225.781 445.432 226.469 447.818 C 226.888 449.255 226.144 450.434 223.445 450.572 Z" fill="#bc8487" style=""/>
  <path d="M 223.445 450.572 C 216.284 450.941 188.008 450.572 188.008 450.572 C 188.008 450.572 180.659 444.881 180.108 444.881 C 179.557 444.881 179.194 447.818 179.194 447.818 L 167.625 444.512 L 167.625 438.756 L 178.455 442.677 L 187.088 447.818 L 226.469 447.818 C 226.888 449.255 226.144 450.434 223.445 450.572 Z" opacity="0.1" style=""/>
  <path d="M 191.291 441.945 C 191.291 441.945 200.105 433.5 205.999 435.886" stroke="#000" stroke-miterlimit="10" opacity="0.1" style=""/>
  <path d="M 135.487 410.909 C 135.856 412.01 132.551 413.482 132.551 413.482 L 132.551 427.986 C 132.551 427.986 134.049 436.696 131.884 439.235 C 131.555 439.652 131.06 439.904 130.529 439.923 C 126.491 440.105 117.677 412.562 117.677 412.562 L 117.126 396.647 L 114.923 395.121 L 111.799 374.92 L 117.496 374.92 C 117.496 374.92 118.096 374.552 119.06 374.055 C 121.815 372.65 127.582 370.199 130.717 372.535 L 141.365 396.526 C 141.365 396.526 135.123 409.807 135.487 410.909 Z" fill="#bc8487" style=""/>
  <path d="M 131.884 439.235 C 131.555 439.652 131.06 439.904 130.529 439.923 C 126.491 440.105 117.677 412.562 117.677 412.562 L 117.126 396.647 L 114.923 395.121 L 111.799 374.92 L 117.496 374.92 C 117.496 374.92 118.096 374.552 119.06 374.055 L 120.432 394.752 L 121.165 412.562 C 121.165 412.562 128.083 431.952 131.884 439.235 Z" opacity="0.1" style=""/>
  <path d="M 234.05 335.67 C 232.26 338.287 220.553 344.622 220.553 344.622 C 220.553 344.622 215.595 344.897 209.811 349.305 C 206.82 351.585 196.425 356.108 187.088 359.947 C 178.367 363.533 170.561 366.52 170.561 366.52 L 161.571 376.986 L 154.723 384.957 C 154.723 384.957 150.592 383.305 150.179 386.335 C 149.766 389.364 143.569 392.807 143.706 393.358 C 143.844 393.909 141.365 395.286 141.365 396.526 C 141.365 397.765 132.138 387.574 132.276 381.377 C 132.413 375.179 127.593 370.91 127.593 370.91 C 127.593 370.91 128.833 368.706 130.761 369.12 C 132.688 369.533 134.341 368.706 134.892 368.018 C 135.443 367.329 137.785 368.982 138.886 368.431 C 139.987 367.88 144.395 357 144.395 357 L 161.565 345.481 L 195.72 322.587 L 197.295 321.529 C 197.295 321.529 201.84 323.612 199.995 306.551 C 199.636 303.246 199.036 299.23 198.121 294.339 C 192.475 264.178 212.72 260.735 212.72 260.735 L 230.486 266.657 L 234.755 273.267 L 234.755 273.3 L 235.719 314.032 C 235.719 314.032 235.84 333.054 234.05 335.67 Z" fill="#433a59" style=""/>
  <path d="M 186.95 354.951 C 186.95 354.951 187.005 356.907 187.088 359.947 C 178.367 363.533 170.561 366.52 170.561 366.52 L 161.571 376.986 C 161.422 368.31 161.455 357.039 161.571 345.487 L 195.725 322.593 C 191.5 338.254 186.95 354.951 186.95 354.951 Z" opacity="0.1" style=""/>
  <path d="M 234.739 273.284 L 234.739 273.317 L 208.021 273.835 C 208.021 273.835 203.338 292.151 202.65 296.008 C 202.479 296.955 201.443 301.004 199.978 306.568 C 199.62 303.262 199.02 299.247 198.105 294.355 C 192.458 264.194 212.703 260.752 212.703 260.752 L 230.469 266.673 Z" opacity="0.1" style=""/>
  <path d="M 164.364 223.292 L 160.921 289.397 C 160.921 289.397 158.442 386.489 160.921 392.824 C 163.4 399.158 164.364 409.074 164.364 409.074 C 164.364 409.074 162.849 416.649 164.364 419.128 C 165.879 421.607 170.699 424.361 170.561 425.739 C 170.423 427.115 185.297 434.552 193.01 422.709 C 193.01 422.709 188.327 416.098 189.291 413.206 C 190.255 410.314 188.878 406.045 188.878 406.045 C 188.878 406.045 186.262 397.919 186.262 393.772 C 186.262 389.623 185.297 354.934 185.297 354.934 C 185.297 354.934 200.309 299.847 200.997 295.991 C 201.686 292.135 206.368 273.819 206.368 273.819 L 234.739 273.267 C 234.739 273.267 233.912 253.574 232.26 249.305 C 230.607 245.035 222.481 213.773 222.481 213.773 Z" fill="#433a59" style=""/>
  <polygon points="117.016 288.097 114.554 288.802 114.455 291.237 188.283 292.19 188.283 291.231 117.016 288.097" fill="#7b728f" style=""/>
  <path d="M 204.099 85.364 C 193.356 107.152 200.028 111.707 201.091 112.269 C 198.816 111.211 169.244 97.318 173.134 93.792 C 175.662 91.496 177.827 81.502 179.1 74.341 C 179.855 70.067 180.295 66.8 180.295 66.8 L 211.326 72.49 C 208.318 77.338 205.928 81.607 204.099 85.364 Z" fill="#ffc5d3" style=""/>
  <path d="M 245.039 98.905 L 244.4 99.759 L 232.122 108.418 L 229.522 104.144 C 233.306 101.94 244.654 98.084 244.654 98.084 Z" opacity="0.1" style=""/>
  <path d="M 256.36 118.764 C 255.259 122.62 236.666 118.764 236.666 118.764 L 234.739 115.733 C 234.739 115.733 234.545 115.348 234.22 114.72 C 233.031 112.412 230.15 106.948 228.959 105.978 C 227.444 104.738 245.21 98.679 245.21 98.679 L 250.653 110.523 C 251.995 111.425 253.233 112.472 254.344 113.646 C 255.721 115.139 256.861 117.006 256.36 118.764 Z" fill="#e5e8ef" style=""/>
  <path d="M 225.511 120.537 C 225.511 120.537 236.529 129.23 238.181 128.602 C 239.834 127.974 266.551 146.015 266.551 146.015 C 266.551 146.015 269.581 157.584 257.049 158.272 C 257.049 158.272 230.469 157.171 229.367 153.315 C 228.266 149.458 225.511 120.537 225.511 120.537 Z" fill="#5f5570" style=""/>
  <path d="M 195.488 103.064 L 183.507 115.458 L 200.309 222.328 L 206.919 218.472 C 206.919 218.472 223.996 226.047 225.373 219.023 C 226.751 211.999 226.371 184.318 226.371 184.318 L 224.134 134.31 C 224.134 134.31 216.284 116.819 216.284 116.268 C 216.284 115.717 204.963 107.179 204.963 107.179 L 199.62 103.047 Z" opacity="0.1" style=""/>
  <path d="M 195.488 101.411 L 183.507 113.806 L 200.309 220.675 L 206.919 216.819 C 206.919 216.819 223.996 224.394 225.373 217.37 C 226.751 210.347 226.371 182.665 226.371 182.665 L 224.134 132.657 C 224.134 132.657 216.284 115.166 216.284 114.616 C 216.284 114.065 204.963 105.526 204.963 105.526 L 199.62 101.395 Z" fill="#e5e8ef" style=""/>
  <path d="M 196.177 103.201 L 192.872 109.949 L 196.177 113.437 C 196.177 113.437 208.021 137.356 205.679 151.541 L 208.158 198.227 L 216.146 206.077 L 222.481 198.761 L 219.451 156.345 C 219.451 156.345 211.326 121.364 202.788 110.484 L 200.309 100.844 Z" opacity="0.1" style=""/>
  <path d="M 196.177 102.1 L 192.872 108.848 L 196.177 112.335 C 196.177 112.335 208.021 136.254 205.679 150.439 L 208.158 197.125 L 216.146 204.975 L 222.481 197.66 L 219.451 155.242 C 219.451 155.242 211.326 120.262 202.788 109.382 L 200.309 99.742 Z" style="fill: rgb(229, 26, 148);"/>
  <path d="M 211.326 72.49 C 208.318 77.338 205.949 81.607 204.099 85.364 C 202.149 85.939 200.126 86.231 198.094 86.229 C 191.285 86.229 187.363 81.519 183.507 76.517 C 182.625 75.382 179.728 75.647 179.1 74.313 C 179.855 70.039 180.295 66.772 180.295 66.772 Z" opacity="0.1" style=""/>
  <path d="M 219.209 64.558 C 219.208 80.812 201.612 90.97 187.535 82.842 C 173.459 74.714 173.46 54.396 187.538 46.269 C 196.906 40.862 208.846 43.408 215.193 52.168 C 217.804 55.772 219.209 60.108 219.209 64.558 Z" fill="#ffc5d3" style=""/>
  <path d="M 191.357 111.602 L 174.005 90.669 C 174.005 90.669 172.401 90.024 177.816 84.356 C 177.816 84.356 197.703 99.857 198.937 102.491 C 200.171 105.124 191.357 111.602 191.357 111.602 Z" opacity="0.1" style=""/>
  <path d="M 190.806 110.501 L 173.453 89.567 C 173.453 89.567 171.851 88.923 177.265 83.254 C 177.265 83.254 197.152 98.756 198.386 101.389 C 199.62 104.023 190.806 110.501 190.806 110.501 Z" fill="#e5e8ef" style=""/>
  <path d="M 234.739 243.729 C 234.739 243.729 231.433 241.747 231.433 239.405 C 231.433 237.064 229.781 204.012 229.781 204.012 C 229.781 204.012 227.357 184.284 224.823 168.607 L 224.823 168.607 C 223.335 159.369 221.809 151.53 220.729 149.976 L 220.685 149.91 C 217.794 146.192 218.344 128.013 200.303 101.433 C 200.545 101.599 206.765 105.961 211.321 108.154 C 212.248 108.62 213.22 108.989 214.224 109.255 C 218.355 110.219 231.852 115.453 231.438 123.854 C 231.026 132.254 232.402 151.535 232.402 151.535 L 232.402 191.05 Z" fill="#5f5570" style=""/>
  <path d="M 256.36 118.764 C 255.259 122.62 236.666 118.764 236.666 118.764 L 234.739 115.733 C 234.739 115.733 234.545 115.348 234.22 114.72 C 234.209 114.699 234.199 114.677 234.193 114.654 C 244.996 115.408 251.017 114.621 254.344 113.646 C 255.721 115.139 256.861 117.006 256.36 118.764 Z" opacity="0.1" style=""/>
  <path d="M 234.739 115.733 C 234.739 115.733 240.523 131.709 239.696 135.703 C 238.87 139.697 253.055 155.397 253.055 155.397 L 266.551 146.032 C 266.551 146.032 261.455 135.841 262.144 132.811 C 262.833 129.781 258.564 123.308 258.564 123.308 L 258.839 112.577 C 258.839 112.577 256.36 117.232 234.739 115.733 Z" fill="#5f5570" style=""/>
  <path d="M 215.193 52.168 L 204.727 52.565 C 203.705 52.559 202.685 52.686 201.696 52.945 C 197.956 54.097 196.232 58.073 196.095 61.649 C 195.957 65.224 193.891 69.229 189.886 69.543 C 189.488 69.611 189.078 69.52 188.746 69.289 C 188.492 69.019 188.323 68.681 188.261 68.314 C 187.686 66.231 186.798 64.248 185.628 62.431 C 183.975 62.729 182.752 64.299 182.323 65.94 C 181.893 67.582 182.009 69.312 182.014 71.014 C 182.019 73.175 181.811 75.333 181.391 77.453 C 171.472 64.577 179.212 45.791 195.324 43.638 C 203.016 42.611 210.652 45.886 215.21 52.168 Z" opacity="0.1" style=""/>
  <path d="M 201.151 52.394 C 202.14 52.135 203.159 52.008 204.182 52.014 L 216.89 51.54 C 218.752 51.469 220.829 51.303 222.079 49.92 C 222.528 49.393 222.859 48.775 223.049 48.109 C 223.71 45.955 223.412 43.619 222.228 41.702 C 220.757 39.361 218.179 38 215.722 36.744 C 213.435 35.522 211.087 34.419 208.687 33.439 C 199.773 30.053 189.902 30.195 181.089 33.835 C 180.218 34.169 179.392 34.612 178.631 35.152 C 177.57 36.062 176.664 37.142 175.955 38.347 L 171.773 44.649 C 171.196 45.419 170.752 46.279 170.457 47.194 C 169.669 50.185 172.109 53.177 171.856 56.256 C 171.713 57.787 170.903 59.192 170.754 60.724 C 170.556 62.701 171.459 64.58 172.346 66.381 L 179.695 81.205 C 180.882 77.748 181.483 74.118 181.474 70.463 C 181.474 68.76 181.331 67.031 181.783 65.389 C 182.234 63.748 183.435 62.177 185.088 61.88 C 186.262 63.695 187.151 65.68 187.727 67.764 C 187.787 68.13 187.956 68.47 188.212 68.739 C 188.544 68.969 188.953 69.061 189.352 68.992 C 193.378 68.678 195.411 64.711 195.56 61.098 C 195.709 57.485 197.411 53.546 201.151 52.394 Z" fill="#8f7080" style=""/>
  <polygon points="114.554 288.802 119.699 287.331 197.279 291.556 188.741 292.658 114.554 288.802" fill="#7b728f" style=""/>
  <polygon points="114.554 288.802 119.699 287.331 197.279 291.556 188.741 292.658 114.554 288.802" opacity="0.1" style=""/>
  <polygon points="199.389 365.925 189.153 364.971 185.562 364.641 185.562 307.714 186.509 294.498 186.718 291.556 197.279 291.556 199.389 365.925" fill="#7b728f" style=""/>
  <polygon points="196.59 363.903 188.426 363 185.562 362.686 185.562 308.711 186.317 296.184 186.482 293.391 194.905 293.391 196.59 363.903" opacity="0.1" style=""/>
  <path d="M 140.605 288.802 C 140.605 288.802 145.7 277.625 147.838 277.278 C 149.975 276.93 153.897 277.278 153.897 277.278 L 153.551 280.517 C 153.551 280.517 148.317 280.93 146.664 289.672 Z" fill="#7b728f" style=""/>
  <path d="M 140.605 288.802 C 140.605 288.802 145.7 277.625 147.838 277.278 C 149.975 276.93 153.897 277.278 153.897 277.278 L 153.551 280.517 C 153.551 280.517 148.317 280.93 146.664 289.672 Z" opacity="0.1" style=""/>
  <path d="M 160.37 276.11 C 160.37 276.11 174.071 282.924 172.28 290.912 L 164.843 290.499 C 164.843 290.499 161.263 278.589 158.442 277.966 C 155.622 277.344 160.37 276.11 160.37 276.11 Z" fill="#7b728f" style=""/>
  <path d="M 211.326 168.204 L 211.326 168.607 L 211.051 214.478 C 211.051 214.478 204.027 253.039 202.099 254.554 C 200.171 256.069 157.891 251.937 157.891 251.937 L 138.749 122.895 C 138.611 100.86 154.173 101.549 154.173 101.549 C 156.238 98.244 166.154 95.627 166.154 95.627 L 171.663 90.256 L 171.839 90.008 C 172.205 89.462 172.677 88.996 173.227 88.637 L 173.227 88.637 C 174.362 87.98 175.084 88.845 175.497 89.699 C 175.683 90.1 175.827 90.519 175.927 90.95 C 198.243 107.317 211.326 168.204 211.326 168.204 Z" fill="#5f5570" style=""/>
  <path d="M 210.775 168.756 L 210.775 169.158 C 203.85 156.487 177.172 108.484 169.873 106.094 L 172.682 104.165 C 172.682 104.165 174.555 103.064 171.112 101.962 C 171.112 101.962 165.741 102.65 165.603 96.178 L 171.288 90.559 L 172.677 89.187 L 172.677 89.187 L 174.946 90.25 C 175.132 90.651 175.276 91.071 175.376 91.501 C 197.692 107.867 210.775 168.756 210.775 168.756 Z" opacity="0.1" style=""/>
  <path d="M 211.326 168.204 L 211.326 168.607 C 204.402 155.937 177.722 107.933 170.423 105.543 L 173.233 103.615 C 173.233 103.615 175.106 102.513 171.663 101.411 C 171.663 101.411 166.292 102.1 166.154 95.627 L 171.839 90.008 L 173.227 88.637 L 173.227 88.637 L 175.497 89.699 C 175.683 90.1 175.827 90.519 175.927 90.95 C 198.243 107.317 211.326 168.204 211.326 168.204 Z" fill="#433a59" style=""/>
  <path d="M 221.286 150.505 L 221.242 150.439 C 218.35 146.72 218.9 128.542 200.859 101.962 C 201.101 102.127 207.321 106.49 211.877 108.683 L 210.604 112.881 L 213.358 114.351 Z" opacity="0.1" style=""/>
  <path d="M 220.735 149.954 L 220.691 149.888 C 217.799 146.169 218.35 127.991 200.309 101.411 C 200.551 101.576 206.77 105.939 211.326 108.132 L 210.053 112.329 L 212.808 113.8 Z" fill="#433a59" style=""/>
  <path d="M 199.515 97.17 L 198.386 101.94 C 198.386 101.94 199.212 106.716 204.165 107.129 L 204.963 104.854 C 204.963 104.854 199.62 101.427 199.515 97.17 Z" opacity="0.1" style=""/>
  <path d="M 199.515 96.618 L 198.386 101.389 C 198.386 101.389 199.212 106.165 204.165 106.578 L 204.963 104.303 C 204.963 104.303 199.62 100.876 199.515 96.618 Z" fill="#e5e8ef" style=""/>
  <polygon points="192.392 292.328 189.153 364.971 185.562 364.641 185.562 307.714 186.509 294.498 192.392 292.328" opacity="0.1" style=""/>
  <polygon points="115.292 320.384 113.088 359.678 188.008 365.925 191.291 292.328 115.292 320.384" fill="#7b728f" style=""/>
  <polygon points="113.639 324.609 115.105 289.904 191.842 293.429 188.189 330.117 113.639 324.609" opacity="0.1" style=""/>
  <polygon points="113.088 323.507 114.554 288.802 191.291 292.328 187.638 329.016 113.088 323.507" fill="#7b728f" style=""/>
  <rect x="145.359" y="323.551" width="9.227" height="10.742" fill="#c3bbc8" style=""/>
  <path d="M 146.736 253.177 L 145.359 256.895 C 145.359 256.895 142.466 277.278 146.048 279.757 C 149.628 282.236 160.232 282.373 160.784 281.134 C 161.334 279.894 165.19 265.847 165.19 265.847 C 165.19 265.847 168.633 276.176 170.423 275.35 C 172.214 274.524 166.292 254.89 166.292 254.89 Z" fill="#ffc5d3" style=""/>
  <path d="M 145.359 237.753 L 145.359 257.446 C 145.359 257.446 159.957 260.2 166.292 255.441 C 166.292 255.441 160.37 236.375 162.574 231.555 C 164.777 226.735 145.359 237.753 145.359 237.753 Z" opacity="0.1" style=""/>
  <path d="M 145.359 237.201 L 145.359 256.895 C 145.359 256.895 159.957 259.65 166.292 254.89 C 166.292 254.89 160.37 235.825 162.574 231.005 C 164.777 226.184 145.359 237.201 145.359 237.201 Z" fill="#e5e8ef" style=""/>
  <path d="M 143.706 121.931 L 139.85 123.997 C 139.85 123.997 139.161 132.26 138.749 133.362 C 138.335 134.463 138.749 145.619 138.749 145.619 L 138.561 168.204 C 138.561 168.204 137.966 180.186 138.561 184.455 C 139.156 188.724 139.822 204.975 139.822 204.975 C 139.822 204.975 143.546 220.813 142.169 226.459 C 140.792 232.106 142.307 244.776 144.648 243.674 C 146.989 242.573 168.611 238.304 169.713 237.477 C 170.814 236.651 170.264 228.938 169.713 227.974 C 169.162 227.011 165.857 213.927 166.132 210.897 C 166.408 207.868 165.168 181.288 165.168 181.288 C 165.168 181.288 167.234 152.918 168.06 146.308 C 168.887 139.697 166.408 120.279 164.204 120.003 C 162.001 119.727 155.55 104.716 143.706 121.931 Z" opacity="0.1" style=""/>
  <path d="M 142.604 120.829 L 138.749 122.895 C 138.749 122.895 138.06 131.158 137.646 132.26 C 137.233 133.362 137.646 144.517 137.646 144.517 L 137.46 167.103 C 137.46 167.103 136.865 179.084 137.46 183.354 C 138.054 187.623 138.721 203.874 138.721 203.874 C 138.721 203.874 142.445 219.711 141.067 225.358 C 139.69 231.005 141.205 243.674 143.546 242.573 C 145.888 241.471 167.509 237.201 168.611 236.375 C 169.713 235.549 169.162 227.837 168.611 226.873 C 168.06 225.909 164.755 212.826 165.03 209.796 C 165.306 206.766 164.066 180.186 164.066 180.186 C 164.066 180.186 166.132 151.816 166.959 145.205 C 167.785 138.595 165.306 119.177 163.103 118.901 C 160.899 118.626 154.448 103.615 142.604 120.829 Z" fill="#5f5570" style=""/>
  <g opacity="0.1" transform="matrix(0.550875, 0, 0, 0.550875, 9.397883, 29.247128)" style="">
    <path d="M480.66,104.77c-3,.54-5.22,3.39-6,6.37s-.57,6.12-.56,9.21a59.61,59.61,0,0,1-3.22,19.5l-13.35-26.91c-.26-.53-.53-1.08-.79-1.63a36.37,36.37,0,0,0,2.29,5.38l13.35,26.91a59.61,59.61,0,0,0,3.22-19.5c0-3.09-.25-6.23.56-9.21s3-5.83,6-6.37a40.13,40.13,0,0,1,2.59,4.73A39,39,0,0,0,480.66,104.77Z" transform="translate(-163.24 -49.28)"/>
    <path d="M549.83,72.32a14.16,14.16,0,0,1-.24,7.45,8.83,8.83,0,0,1-1.77,3.29c-2.27,2.51-6,2.81-9.42,2.94l-23.06.86a21.23,21.23,0,0,0-5.51.69c-6.78,2.09-9.92,9.31-10.17,15.8s-4,13.76-11.27,14.33a2.81,2.81,0,0,1-2.07-.46h0c.23.65.45,1.31.64,2a3.3,3.3,0,0,0,.87,1.77,2.81,2.81,0,0,0,2.07.46c7.32-.57,11-7.77,11.27-14.33s3.39-13.71,10.17-15.8a21.23,21.23,0,0,1,5.51-.69l23.06-.86c3.38-.13,7.15-.43,9.42-2.94a8.83,8.83,0,0,0,1.77-3.29A14.2,14.2,0,0,0,549.83,72.32Z" transform="translate(-163.24 -49.28)"/>
  </g>
  <path d="M 201.675 267.88 C 201.675 267.88 206.445 265.401 208.286 265.538 C 210.125 265.676 226.646 286.687 226.646 286.687 Z" opacity="0.1" style=""/>
  <path d="M 152.741 125.688 C 152.741 125.688 144.02 129.412 144.251 131.984 C 144.483 134.557 152.741 125.688 152.741 125.688 Z" opacity="0.1" style=""/>
  <path d="M 148.493 137.862 C 148.493 137.862 139.344 149.563 141.365 149.954 C 143.386 150.346 148.493 137.862 148.493 137.862 Z" opacity="0.1" style=""/>
  <path d="M 179.1 155.397 C 179.1 155.397 179.937 181.563 173.227 184.869 Z" opacity="0.1" style=""/>
  <path d="M 144.229 225.264 C 144.229 225.264 150.686 221.595 152.168 222.328 C 153.65 223.06 144.229 225.264 144.229 225.264 Z" opacity="0.1" style=""/>
  <path d="M 145.359 230.338 C 145.359 230.338 149.435 230.63 151.369 229.787 C 153.302 228.944 145.359 230.338 145.359 230.338 Z" opacity="0.1" style=""/>
  <path d="M 242.67 133.985 C 242.67 133.985 247.728 148.511 250.642 148.511" opacity="0.1" style=""/>
  <path d="M 170.759 412.198 C 170.759 412.198 180.246 409.625 181.645 412.198 C 183.044 414.77 170.759 412.198 170.759 412.198 Z" opacity="0.1" style=""/>
  <path d="M 140.605 374.055 C 140.605 374.055 138.241 377.674 141.365 378.777 C 144.489 379.878 140.605 374.055 140.605 374.055 Z" opacity="0.1" style=""/>
  <path d="M 203.614 323.551 C 203.614 323.551 210.775 329.93 214.157 330.117 C 217.54 330.305 203.614 323.551 203.614 323.551 Z" opacity="0.1" style=""/>
  <path d="M 485.684 62.205 C 485.684 62.205 439.306 59.39 444.77 91.892 C 444.77 91.892 443.668 97.637 448.89 100.249 C 448.89 100.249 448.973 97.836 453.65 98.657 C 455.314 98.933 457.003 99.014 458.685 98.899 C 460.956 98.745 463.115 97.858 464.839 96.371 L 464.839 96.371 C 464.839 96.371 477.878 90.988 482.946 69.675 C 482.946 69.675 486.698 65.026 486.549 63.83 L 478.721 67.174 C 478.721 67.174 481.397 72.821 479.271 77.514 C 479.271 77.514 479.018 67.378 477.514 67.598 C 477.206 67.648 473.443 69.554 473.443 69.554 C 473.443 69.554 478.048 79.392 474.572 86.538 C 474.572 86.538 475.894 74.418 472.01 70.264 L 466.502 73.482 C 466.502 73.482 471.884 83.64 468.238 91.931 C 468.238 91.931 469.174 79.216 465.345 74.264 L 460.355 78.158 C 460.355 78.158 465.406 88.174 462.326 95.048 C 462.326 95.048 461.925 80.246 459.269 79.128 C 459.269 79.128 454.906 82.984 454.239 84.56 C 454.239 84.56 457.699 91.832 455.551 95.666 C 455.551 95.666 454.234 85.805 453.154 85.75 C 453.154 85.75 448.803 92.283 448.351 96.767 C 448.351 96.767 448.538 90.102 452.102 85.128 C 452.102 85.128 447.894 85.849 445.436 88.582 C 445.436 88.582 446.114 83.959 453.149 83.557 C 453.149 83.557 456.741 78.6 457.704 78.296 C 457.704 78.296 450.681 77.712 446.423 79.596 C 446.423 79.596 450.174 75.239 458.993 77.222 L 463.951 73.201 C 463.951 73.201 454.702 71.934 450.785 73.333 C 450.785 73.333 455.297 69.477 465.279 72.287 L 470.645 69.075 C 470.645 69.075 462.762 67.378 458.068 67.973 C 458.068 67.973 463.026 65.301 472.214 68.199 L 476.071 66.475 C 476.071 66.475 470.298 65.34 468.606 65.164 C 466.915 64.988 466.821 64.514 466.821 64.514 C 470.481 63.904 474.237 64.321 477.674 65.72 C 477.674 65.72 485.826 62.696 485.684 62.205 Z" fill="#1f306d" style=""/>
  <path d="M 393.627 55.975 C 393.627 55.975 372.694 54.713 375.139 69.4 C 375.139 69.4 374.649 71.994 377.002 73.173 C 377.002 73.173 377.04 72.072 379.15 72.452 C 379.903 72.581 380.668 72.618 381.431 72.562 C 382.448 72.486 383.413 72.084 384.185 71.416 L 384.185 71.416 C 384.185 71.416 390.074 68.981 392.365 59.352 C 392.365 59.352 394.062 57.253 394.018 56.713 L 390.47 58.222 C 390.47 58.222 391.676 60.773 390.729 62.894 C 390.729 62.894 390.614 58.316 389.93 58.421 C 389.793 58.421 388.096 59.307 388.096 59.307 C 388.096 59.307 390.173 63.754 388.603 66.981 C 388.603 66.981 389.204 61.506 387.446 59.627 L 384.962 61.081 C 384.962 61.081 387.391 65.67 385.744 69.417 C 385.744 69.417 386.168 63.671 384.438 61.434 L 382.186 63.197 C 382.186 63.197 384.466 67.719 383.072 70.827 C 383.072 70.827 382.891 64.139 381.695 63.632 C 381.695 63.632 379.723 65.373 379.42 66.089 C 379.42 66.089 380.984 69.394 380.014 71.108 C 380.014 71.108 379.42 66.651 378.913 66.629 C 378.913 66.629 376.947 69.582 376.743 71.587 C 376.838 69.717 377.423 67.904 378.439 66.331 C 377.304 66.545 376.256 67.087 375.426 67.89 C 375.426 67.89 375.734 65.803 378.924 65.621 C 378.924 65.621 380.549 63.379 380.984 63.246 C 380.984 63.246 377.812 62.976 375.883 63.83 C 375.883 63.83 377.58 61.864 381.563 62.729 L 383.766 60.911 C 383.766 60.911 379.585 60.36 377.817 60.971 C 377.817 60.971 379.855 59.231 384.361 60.497 L 386.791 59.049 C 386.791 59.049 383.226 58.283 381.106 58.558 C 381.106 58.558 383.342 57.352 387.501 58.657 L 389.231 57.881 C 389.231 57.881 386.625 57.368 385.86 57.286 C 385.094 57.203 385.055 56.994 385.055 56.994 C 386.709 56.722 388.406 56.913 389.958 57.545 C 389.958 57.545 393.693 56.206 393.627 55.975 Z" fill="#1f306d" style=""/>
  <ellipse cx="475.768" cy="427.463" rx="14.835" ry="2.506" fill="#1f306d" opacity="0.1" style=""/>
  <ellipse cx="24.232" cy="390.152" rx="14.835" ry="2.506" fill="#1f306d" opacity="0.1" style=""/>
  <ellipse cx="465.445" cy="378.914" rx="14.835" ry="2.506" fill="#1f306d" opacity="0.1" style=""/>
  <ellipse cx="81.611" cy="403.599" rx="14.835" ry="2.506" fill="#1f306d" opacity="0.1" style=""/>
  <ellipse cx="399.317" cy="405.753" rx="14.835" ry="2.506" fill="#1f306d" opacity="0.1" style=""/>
  <ellipse cx="443.3" cy="454.323" rx="22.15" ry="3.746" fill="#1f306d" style=""/>
  <path d="M 452.455 448.198 C 453.465 447.374 454.2 446.264 454.564 445.014 C 454.84 443.746 454.3 442.259 453.088 441.769 C 451.733 441.251 450.284 442.187 449.188 443.135 C 448.092 444.082 446.83 445.168 445.392 444.97 C 446.898 443.606 447.577 441.552 447.183 439.56 C 447.118 439.154 446.945 438.774 446.681 438.458 C 445.932 437.654 444.566 438.001 443.668 438.635 C 440.803 440.651 440.005 444.54 439.988 448.043 C 439.702 446.776 439.945 445.46 439.933 444.187 C 439.922 442.915 439.576 441.433 438.479 440.761 C 437.802 440.397 437.043 440.217 436.276 440.237 C 434.987 440.193 433.554 440.32 432.678 441.262 C 431.577 442.43 431.869 444.396 432.816 445.669 C 433.764 446.941 435.213 447.763 436.546 448.655 C 437.613 449.289 438.523 450.157 439.206 451.194 C 439.29 451.337 439.356 451.488 439.405 451.646 L 447.48 451.646 C 449.286 450.726 450.959 449.565 452.455 448.198 Z" fill="#1f306d" style=""/>
  <path d="M 82.377 341.989 C 82.377 341.989 85.407 345.945 80.984 351.905 C 76.56 357.865 72.913 362.922 74.373 366.646 C 74.373 366.646 81.05 355.552 86.493 355.397 C 91.935 355.243 88.354 348.676 82.377 341.989 Z" style="" fill="#1f306d"/>
  <path d="M 82.377 341.989 C 82.642 342.37 82.85 342.788 82.994 343.228 C 88.294 349.454 91.119 355.265 86.024 355.414 C 81.281 355.546 75.591 364.03 74.224 366.172 C 74.269 366.338 74.323 366.502 74.384 366.662 C 74.384 366.662 81.061 355.568 86.504 355.414 C 91.946 355.259 88.354 348.676 82.377 341.989 Z" opacity="0.1" style="fill: rgb(229, 26, 148); paint-order: fill;"/>
  <path d="M 88.002 347.046 C 88.002 348.44 87.848 349.569 87.655 349.569 C 87.462 349.569 87.308 348.467 87.308 347.046 C 87.308 345.625 87.5 346.308 87.693 346.308 C 87.886 346.308 88.002 345.652 88.002 347.046 Z" fill="#ffd037" style=""/>
  <path d="M 89.935 348.71 C 88.713 349.376 87.644 349.779 87.555 349.613 C 87.468 349.448 88.376 348.765 89.599 348.099 C 90.822 347.431 90.343 347.916 90.431 348.099 C 90.519 348.28 91.158 348.049 89.935 348.71 Z" fill="#ffd037" style=""/>
  <path d="M 66.396 341.989 C 66.396 341.989 63.366 345.945 67.79 351.905 C 72.214 357.865 75.861 362.922 74.401 366.646 C 74.401 366.646 67.73 355.552 62.281 355.397 C 56.833 355.243 60.42 348.676 66.396 341.989 Z" style="" fill="#1f306d"/>
  <path d="M 66.396 341.989 C 66.131 342.37 65.921 342.788 65.774 343.228 C 60.475 349.454 57.654 355.265 62.744 355.414 C 67.493 355.546 73.183 364.03 74.549 366.172 C 74.505 366.339 74.45 366.503 74.384 366.662 C 74.384 366.662 67.713 355.568 62.265 355.414 C 56.817 355.259 60.42 348.676 66.396 341.989 Z" opacity="0.1" style=""/>
  <path d="M 60.766 347.046 C 60.766 348.44 60.926 349.569 61.119 349.569 C 61.312 349.569 61.466 348.467 61.466 347.046 C 61.466 345.625 61.273 346.308 61.081 346.308 C 60.887 346.308 60.766 345.652 60.766 347.046 Z" fill="#ffd037" style=""/>
  <path d="M 58.844 348.71 C 60.067 349.376 61.13 349.779 61.224 349.613 C 61.317 349.448 60.397 348.765 59.175 348.099 C 57.952 347.431 58.436 347.916 58.343 348.099 C 58.249 348.28 57.616 348.049 58.844 348.71 Z" fill="#ffd037" style=""/>
  <path d="M 61.731 366.161 C 61.731 366.161 70.192 365.902 72.748 364.085 C 75.304 362.267 85.765 360.102 86.393 363.016 C 87.021 365.93 99.113 377.498 89.56 377.576 C 80.008 377.653 67.36 376.088 64.815 374.534 C 62.27 372.981 61.731 366.161 61.731 366.161 Z" fill="#a8a8a8" style=""/>
  <path d="M 89.726 376.562 C 80.174 376.639 67.526 375.074 64.981 373.521 C 63.047 372.342 62.27 368.106 62.011 366.15 L 61.731 366.15 C 61.731 366.15 62.281 372.975 64.81 374.524 C 67.339 376.072 80.003 377.642 89.555 377.564 C 92.309 377.564 93.263 376.562 93.213 375.108 C 92.827 375.994 91.775 376.545 89.726 376.562 Z" opacity="0.2" style=""/>
</svg>