<?xml version="1.0" encoding="utf-8"?>
<!-- Generator: Adobe Illustrator 24.3.0, SVG Export Plug-In . SVG Version: 6.00 Build 0)  -->
<svg version="1.1" id="Layer_1" xmlns="http://www.w3.org/2000/svg" xmlns:xlink="http://www.w3.org/1999/xlink" x="0px" y="0px"
	 viewBox="0 0 841.9 595.3" style="enable-background:new 0 0 841.9 595.3;" xml:space="preserve">
<style type="text/css">
	.st0{fill:#25336A;}
	.st1{fill:#D8318A;}
</style>
<g>
	<path class="st0" d="M265,186.5v80.3c0,7.2-2.3,13.2-6.8,18c-2.3,2.4-4.9,4.2-8,5.6c-3.1,1.4-6.7,2.1-10.8,2.1
		c-4.8,0-8.8-1.1-12-3.2c-3.2-2.1-5.7-4.2-7.6-6.3l11.8-9.4c1.1,1.1,2.3,2,3.8,2.7c1.4,0.7,2.9,1.1,4.5,1.1c0.9,0,1.9-0.2,3.1-0.5
		c1.2-0.3,2.3-1,3.4-2c1.1-0.9,2-2.1,2.7-3.8c0.7-1.6,1-3.8,1-6.4v-78.2H265z"/>
	<path class="st0" d="M324.5,186.5v81.5c0,3.4-0.6,6.6-1.8,9.5c-1.2,2.9-3,5.5-5.2,7.7c-2.3,2.3-4.9,4-7.8,5.3s-6.1,1.9-9.4,1.9
		c-3.3,0-6.5-0.6-9.4-1.9c-2.9-1.3-5.5-3-7.7-5.3c-2.3-2.3-4-4.8-5.3-7.7c-1.3-2.9-1.9-6.1-1.9-9.5v-81.5h15.1v80
		c0,3.7,0.9,6.5,2.7,8.3c1.8,1.8,4,2.7,6.6,2.7s4.9-0.9,6.6-2.7c1.8-1.8,2.7-4.5,2.7-8.3v-80H324.5z"/>
	<path class="st0" d="M385.4,216.7h-15.1v-3.4c0-3.4-0.8-6.4-2.4-8.9c-1.6-2.5-4.4-3.8-8.2-3.8c-2.1,0-3.7,0.4-5,1.2
		c-1.3,0.8-2.3,1.8-3.1,3c-0.8,1.3-1.3,2.7-1.6,4.4c-0.3,1.6-0.4,3.3-0.4,5.1c0,2.1,0.1,3.8,0.2,5.2c0.1,1.4,0.5,2.6,1.1,3.7
		c0.6,1.1,1.5,2,2.6,2.8c1.1,0.8,2.7,1.6,4.7,2.4l11.5,4.6c3.3,1.3,6.1,2.8,8.1,4.5c2.1,1.7,3.7,3.7,4.9,6c1.1,2.4,1.8,5,2.2,8
		c0.4,3,0.6,6.4,0.6,10.3c0,4.4-0.4,8.5-1.3,12.3c-0.9,3.8-2.3,7-4.3,9.7c-2.1,2.8-4.8,4.9-8.1,6.5c-3.3,1.6-7.4,2.4-12.3,2.4
		c-3.6,0-7-0.6-10.2-1.9c-3.2-1.3-5.9-3-8.1-5.3c-2.3-2.3-4.1-4.9-5.4-7.9c-1.3-3-2-6.3-2-9.8v-5.6h15.1v4.7c0,2.8,0.8,5.2,2.4,7.5
		c1.6,2.2,4.4,3.3,8.2,3.3c2.6,0,4.6-0.4,6-1.1c1.4-0.7,2.5-1.8,3.3-3.2c0.8-1.4,1.3-3,1.4-4.9s0.2-4.1,0.2-6.4c0-2.8-0.1-5-0.3-6.8
		c-0.2-1.8-0.6-3.2-1.2-4.3c-0.7-1.1-1.6-2-2.7-2.7c-1.1-0.7-2.6-1.4-4.5-2.2l-10.8-4.4c-6.5-2.7-10.8-6.2-13.1-10.6
		c-2.2-4.4-3.3-9.9-3.3-16.5c0-3.9,0.5-7.7,1.6-11.2c1.1-3.5,2.7-6.6,4.9-9.2c2.1-2.6,4.7-4.6,7.9-6.1c3.2-1.5,7-2.3,11.4-2.3
		c3.7,0,7.2,0.7,10.3,2.1c3.1,1.4,5.8,3.2,8,5.5c4.5,4.7,6.8,10.1,6.8,16.2V216.7z"/>
	<path class="st0" d="M408.1,291.6v-90.9h-17.4v-14.2h49.9v14.2h-17.4v90.9H408.1z"/>
	<path class="st1" d="M446.4,291.6v-14.2l27.2-51.2c1.4-2.6,2.2-4.8,2.4-6.7c0.2-1.9,0.3-4.3,0.3-7.2c0-1.3,0-2.6-0.1-4.1
		c-0.1-1.4-0.3-2.7-0.8-3.8c-0.5-1.1-1.2-2-2.2-2.7c-1-0.7-2.4-1.1-4.3-1.1c-2.3,0-4.1,0.6-5.4,1.9c-1.3,1.3-2,3.2-2,5.6v8.6h-15.1
		v-8.3c0-3.1,0.6-6.1,1.8-8.9c1.2-2.8,2.8-5.2,4.9-7.2c2-2.1,4.3-3.7,7.1-4.9c2.8-1.2,5.7-1.8,8.9-1.8c3.9,0,7.3,0.7,10.1,2.1
		c2.8,1.4,5.1,3.4,7,5.8c1.8,2.5,3.1,5.3,3.9,8.4c0.8,3.2,1.3,6.5,1.3,10c0,2.6-0.1,4.7-0.1,6.4c-0.1,1.7-0.3,3.4-0.6,4.9
		c-0.3,1.6-0.8,3.2-1.5,4.7c-0.7,1.6-1.6,3.5-2.8,5.8l-22.1,42.7h27.2v15.1H446.4z"/>
</g>
<g>
	<path class="st0" d="M269.2,378.8v6.5c0,3.2-0.6,6.3-1.8,9.2c-1.2,2.9-2.9,5.5-5.1,7.7c-2.2,2.3-4.7,4.1-7.6,5.4
		c-2.9,1.3-6,2-9.4,2c-2.9,0-5.8-0.4-8.7-1.2c-3-0.8-5.6-2.2-8-4.1c-2.4-2-4.3-4.5-5.8-7.6c-1.5-3.1-2.3-7.1-2.3-11.9V327
		c0-3.4,0.6-6.6,1.8-9.6c1.2-3,2.9-5.5,5-7.7c2.2-2.2,4.7-3.9,7.7-5.1c3-1.2,6.3-1.8,10-1.8c7.1,0,12.8,2.3,17.3,6.9
		c2.2,2.3,3.9,4.9,5.1,8c1.2,3.1,1.8,6.5,1.8,10.1v5.9h-15.1v-5c0-3-0.8-5.5-2.5-7.7c-1.7-2.2-3.9-3.2-6.8-3.2
		c-3.7,0-6.2,1.2-7.5,3.5c-1.2,2.3-1.8,5.2-1.8,8.8v53.7c0,3.1,0.7,5.6,2,7.7c1.3,2.1,3.7,3.1,7.2,3.1c1,0,2-0.2,3.2-0.5
		c1.1-0.3,2.2-0.9,3.2-1.7c0.9-0.8,1.6-1.9,2.2-3.2c0.6-1.4,0.9-3.1,0.9-5.2v-5.2H269.2z"/>
	<path class="st0" d="M278.4,328.5c0-4.2,0.7-8,2.2-11.2s3.4-6,5.9-8.1c2.4-2.1,5-3.6,8-4.7c3-1.1,6-1.6,9.1-1.6
		c3,0,6.1,0.5,9.1,1.6c3,1.1,5.7,2.7,8.2,4.7c2.4,2.2,4.3,4.9,5.8,8.1s2.2,7,2.2,11.2V384c0,4.4-0.7,8.2-2.2,11.4
		c-1.5,3.2-3.4,5.8-5.8,7.8c-2.5,2.2-5.2,3.8-8.2,4.9c-3,1.1-6,1.6-9.1,1.6c-3.1,0-6.1-0.5-9.1-1.6c-3-1.1-5.7-2.7-8-4.9
		c-2.5-2.1-4.4-4.7-5.9-7.8c-1.5-3.1-2.2-6.9-2.2-11.4V328.5z M293.5,384c0,3.6,1,6.3,3,8c2,1.7,4.4,2.6,7.2,2.6
		c2.8,0,5.1-0.9,7.2-2.6c2-1.7,3-4.4,3-8v-55.5c0-3.6-1-6.3-3-8c-2-1.7-4.4-2.6-7.2-2.6c-2.8,0-5.1,0.9-7.2,2.6c-2,1.7-3,4.4-3,8
		V384z"/>
	<path class="st0" d="M338.9,408.8V303.7h14.5l22.7,63.3h0.3v-63.3h15.1v105.1h-14.2l-23-63.2H354v63.2H338.9z"/>
	<path class="st0" d="M401.9,408.8V303.7h14.5l22.7,63.3h0.3v-63.3h15.1v105.1h-14.2l-23-63.2H417v63.2H401.9z"/>
	<path class="st0" d="M465.1,408.8V303.7H510v14.2h-29.8v30.8h26v14.2h-26v30.8H510v15.1H465.1z"/>
	<path class="st0" d="M566.6,378.8v6.5c0,3.2-0.6,6.3-1.8,9.2c-1.2,2.9-2.9,5.5-5.1,7.7c-2.2,2.3-4.7,4.1-7.6,5.4
		c-2.9,1.3-6,2-9.4,2c-2.9,0-5.8-0.4-8.7-1.2c-3-0.8-5.6-2.2-8-4.1c-2.4-2-4.3-4.5-5.8-7.6c-1.5-3.1-2.3-7.1-2.3-11.9V327
		c0-3.4,0.6-6.6,1.8-9.6s2.9-5.5,5-7.7c2.2-2.2,4.7-3.9,7.7-5.1c3-1.2,6.3-1.8,10-1.8c7.1,0,12.8,2.3,17.3,6.9
		c2.2,2.3,3.9,4.9,5.1,8c1.2,3.1,1.8,6.5,1.8,10.1v5.9h-15.1v-5c0-3-0.8-5.5-2.5-7.7c-1.7-2.2-3.9-3.2-6.8-3.2
		c-3.7,0-6.2,1.2-7.5,3.5c-1.2,2.3-1.8,5.2-1.8,8.8v53.7c0,3.1,0.7,5.6,2,7.7s3.7,3.1,7.2,3.1c1,0,2-0.2,3.2-0.5
		c1.1-0.3,2.2-0.9,3.2-1.7c0.9-0.8,1.6-1.9,2.2-3.2c0.6-1.4,0.9-3.1,0.9-5.2v-5.2H566.6z"/>
	<path class="st0" d="M589.8,408.8v-90.9h-17.4v-14.2h49.9v14.2h-17.4v90.9H589.8z"/>
</g>
</svg>
