<?xml version="1.0" encoding="utf-8"?>
<svg viewBox="-5.808 196.703 506.46 100.051" xmlns="http://www.w3.org/2000/svg" xmlns:bx="https://boxy-svg.com">
  <path d="M 693.143 207.626 L 703.168 230.193 L 727.728 232.754 L 709.363 249.261 L 714.518 273.411 L 693.143 261.046 L 671.768 273.411 L 676.923 249.261 L 658.558 232.754 L 683.118 230.193 Z" style="fill: rgb(31, 48, 109);" transform="matrix(-0.809017, 0.587785, -0.587785, -0.809017, 949.559912, 33.892923)" bx:shape="star 693.143 243.991 36.365 36.365 0.469 5 1@5879ff5a"/>
  <path d="M 693.143 207.626 L 703.168 230.193 L 727.728 232.754 L 709.363 249.261 L 714.518 273.411 L 693.143 261.046 L 671.768 273.411 L 676.923 249.261 L 658.558 232.754 L 683.118 230.193 Z" style="fill: rgb(31, 48, 109);" transform="matrix(-0.809017, 0.587785, -0.587785, -0.809017, 1152.246191, 33.892953)" bx:shape="star 693.143 243.991 36.365 36.365 0.469 5 1@5879ff5a"/>
  <path d="M 693.143 207.626 L 703.168 230.193 L 727.728 232.754 L 709.363 249.261 L 714.518 273.411 L 693.143 261.046 L 671.768 273.411 L 676.923 249.261 L 658.558 232.754 L 683.118 230.193 Z" style="fill: rgb(31, 48, 109);" transform="matrix(-0.809017, 0.587785, -0.587785, -0.809017, 746.873388, 33.892984)" bx:shape="star 693.143 243.991 36.365 36.365 0.469 5 1@5879ff5a"/>
  <path d="M 693.143 207.626 L 703.168 230.193 L 727.728 232.754 L 709.363 249.261 L 714.518 273.411 L 693.143 261.046 L 671.768 273.411 L 676.923 249.261 L 658.558 232.754 L 683.118 230.193 Z" style="fill: rgb(31, 48, 109);" transform="matrix(-0.809017, 0.587785, -0.587785, -0.809017, 848.216711, 33.892923)" bx:shape="star 693.143 243.991 36.365 36.365 0.469 5 1@5879ff5a"/>
  <path d="M 693.143 207.626 L 703.168 230.193 L 727.728 232.754 L 709.363 249.261 L 714.518 273.411 L 693.143 261.046 L 671.768 273.411 L 676.923 249.261 L 658.558 232.754 L 683.118 230.193 Z" style="fill: rgb(31, 48, 109);" transform="matrix(-0.809017, 0.587785, -0.587785, -0.809017, 1050.903174, 33.892923)" bx:shape="star 693.143 243.991 36.365 36.365 0.469 5 1@5879ff5a"/>
</svg>